<svg width="157" height="68" viewBox="0 0 157 68" fill="none" xmlns="http://www.w3.org/2000/svg">
<path d="M42.6884 2C24.133 6.51634 11.9086 22.6988 5.67206 34.63C-14.6939 73.5926 71.1513 65.1018 86.4592 64.6951C101.318 64.3004 115.988 62.5002 130.462 59.0579C136.088 57.7198 152.473 55.4361 154.615 47.9923C157.22 38.936 145.978 28.4015 140.04 23.8428C127.715 14.3812 112.391 8.99776 97.2169 6.44401C81.6288 3.82064 63.2566 3.09228 47.6619 6.72239C43.7638 7.6298 11.8895 14.75 2 23.8167" stroke="#FFF8F5" stroke-width="3" stroke-linecap="round"/>
<path d="M34.1815 17.4773C34.9542 17.4773 35.6546 17.5719 36.2825 17.761C36.9104 17.9502 37.4462 18.2206 37.8899 18.5722C38.3367 18.9239 38.6808 19.3524 38.9223 19.8578C39.1638 20.3632 39.2846 20.932 39.2846 21.5645H37.4281C37.4281 21.1951 37.3481 20.8626 37.1881 20.5671C37.0311 20.2715 36.8092 20.0203 36.5225 19.8135C36.2357 19.6036 35.8915 19.4426 35.4901 19.3303C35.0916 19.218 34.6509 19.1618 34.1679 19.1618C33.8992 19.1618 33.6306 19.181 33.3619 19.2195C33.0932 19.2549 32.8351 19.3111 32.5876 19.3879C32.3431 19.4618 32.1152 19.5564 31.9039 19.6716C31.6926 19.7869 31.5099 19.9228 31.356 20.0794C31.202 20.2361 31.0798 20.4149 30.9892 20.6158C30.9017 20.8138 30.8579 21.034 30.8579 21.2763C30.8579 21.5955 30.9364 21.8541 31.0933 22.0521C31.2503 22.2501 31.4737 22.4127 31.7635 22.5397C32.0533 22.6639 32.405 22.7643 32.8185 22.8412C33.2321 22.918 33.6955 22.9948 34.2086 23.0717L34.8788 23.1692C35.1535 23.2106 35.4327 23.2549 35.7165 23.3022C36.0032 23.3465 36.287 23.4012 36.5677 23.4662C36.8485 23.5283 37.1217 23.6051 37.3873 23.6967C37.653 23.7854 37.9035 23.8918 38.139 24.0159C38.3774 24.14 38.5948 24.2878 38.791 24.4592C38.9902 24.6276 39.1608 24.8242 39.3027 25.0488C39.4445 25.2704 39.5547 25.5246 39.6332 25.8112C39.7147 26.095 39.7555 26.4171 39.7555 26.7776C39.7555 27.215 39.6951 27.6169 39.5743 27.9834C39.4536 28.3469 39.28 28.6735 39.0536 28.9631C38.8302 29.2527 38.5586 29.5054 38.2386 29.7211C37.9186 29.9368 37.5579 30.1171 37.1564 30.2619C36.7549 30.4038 36.3172 30.5102 35.8433 30.5811C35.3693 30.652 34.8682 30.6875 34.3399 30.6875C33.4706 30.6875 32.6917 30.5944 32.0035 30.4082C31.3152 30.2191 30.7311 29.9457 30.2511 29.5881C29.7742 29.2276 29.4089 28.7872 29.1553 28.2671C28.9018 27.744 28.775 27.15 28.775 26.4851H30.6315C30.6315 26.8781 30.7175 27.2313 30.8896 27.5445C31.0616 27.8548 31.3062 28.1193 31.6231 28.338C31.9431 28.5538 32.3295 28.7193 32.7823 28.8345C33.2381 28.9468 33.7483 29.003 34.3128 29.003C34.6358 29.003 34.9482 28.9838 35.2501 28.9453C35.555 28.9069 35.8402 28.8478 36.1059 28.768C36.3715 28.6853 36.613 28.5833 36.8304 28.4621C37.0507 28.338 37.2394 28.1932 37.3964 28.0277C37.5533 27.8593 37.6756 27.6687 37.7631 27.4559C37.8507 27.2431 37.8944 27.0052 37.8944 26.7422C37.8944 26.5087 37.8582 26.3063 37.7858 26.1349C37.7163 25.9634 37.6152 25.8157 37.4824 25.6916C37.3496 25.5645 37.1896 25.4581 37.0024 25.3724C36.8153 25.2867 36.604 25.2143 36.3685 25.1552C36.133 25.0931 35.878 25.0399 35.6033 24.9956C35.3286 24.9483 35.0373 24.901 34.7294 24.8537L33.8871 24.7296C33.5189 24.6735 33.1415 24.6144 32.7551 24.5523C32.3687 24.4873 31.9944 24.403 31.6322 24.2996C31.273 24.1962 30.9334 24.0676 30.6134 23.9139C30.2934 23.7603 30.0142 23.5667 29.7757 23.3332C29.5372 23.0968 29.3485 22.8146 29.2097 22.4865C29.0708 22.1555 29.0014 21.7654 29.0014 21.3162C29.0014 20.8936 29.0633 20.505 29.187 20.1504C29.3138 19.7957 29.4904 19.4766 29.7168 19.1929C29.9432 18.9091 30.2149 18.6609 30.5319 18.4481C30.8488 18.2324 31.199 18.0536 31.5824 17.9117C31.9657 17.7669 32.3763 17.6591 32.814 17.5881C33.2547 17.5142 33.7105 17.4773 34.1815 17.4773Z" fill="white"/>
<path d="M42.5855 25.532C42.5855 26.0787 42.6549 26.5708 42.7938 27.0081C42.9357 27.4426 43.1379 27.8135 43.4005 28.1208C43.6662 28.4252 43.9877 28.6587 44.365 28.8212C44.7423 28.9838 45.1665 29.065 45.6374 29.065C46.0509 29.065 46.4162 29.0044 46.7332 28.8833C47.0501 28.7621 47.3233 28.5966 47.5527 28.3868C47.7822 28.174 47.9678 27.9272 48.1097 27.6465C48.2516 27.3628 48.3527 27.0599 48.4131 26.7377H50.2469C50.1986 27.1071 50.1126 27.4618 49.9888 27.8016C49.8651 28.1415 49.7066 28.4577 49.5134 28.7503C49.3202 29.0429 49.0923 29.3088 48.8296 29.5482C48.57 29.7846 48.2772 29.9886 47.9512 30.16C47.6252 30.3284 47.269 30.4585 46.8826 30.5501C46.4962 30.6417 46.0796 30.6875 45.6329 30.6875C45.1468 30.6875 44.688 30.6313 44.2563 30.519C43.8247 30.4097 43.4277 30.2501 43.0655 30.0403C42.7062 29.8275 42.3832 29.5704 42.0965 29.2689C41.8097 28.9675 41.5667 28.6262 41.3674 28.2449C41.1682 27.8607 41.0158 27.4411 40.9101 26.986C40.8045 26.5309 40.7516 26.0462 40.7516 25.532C40.7516 25.0177 40.8045 24.5331 40.9101 24.078C41.0158 23.6228 41.1682 23.2047 41.3674 22.8234C41.5667 22.4422 41.8097 22.1009 42.0965 21.7994C42.3832 21.495 42.7062 21.2379 43.0655 21.0281C43.4277 20.8183 43.8247 20.6587 44.2563 20.5493C44.688 20.437 45.1468 20.3809 45.6329 20.3809C46.0796 20.3809 46.4962 20.4267 46.8826 20.5183C47.272 20.6099 47.6297 20.7414 47.9557 20.9128C48.2818 21.0813 48.5746 21.2852 48.8342 21.5246C49.0968 21.761 49.3232 22.0255 49.5134 22.3181C49.7066 22.6107 49.8651 22.9269 49.9888 23.2667C50.1126 23.6066 50.1986 23.9612 50.2469 24.3306H48.4131C48.3527 24.0085 48.2516 23.7071 48.1097 23.4263C47.9708 23.1426 47.7867 22.8958 47.5573 22.686C47.3278 22.4732 47.0531 22.3063 46.7332 22.1851C46.4162 22.0639 46.0509 22.0033 45.6374 22.0033C45.1665 22.0033 44.7423 22.0846 44.365 22.2472C43.9877 22.4097 43.6662 22.6432 43.4005 22.9476C43.1379 23.252 42.9357 23.6228 42.7938 24.0602C42.6549 24.4947 42.5855 24.9852 42.5855 25.532Z" fill="white"/>
<path d="M53.3006 30.4215H51.4668V20.6469H53.3006V23.7677C53.4184 23.28 53.5859 22.8441 53.8033 22.4599C54.0236 22.0728 54.2953 21.7448 54.6183 21.4758C54.9413 21.2069 55.3141 21.0015 55.7367 20.8596C56.1624 20.7178 56.6393 20.6469 57.1676 20.6469H57.6249V22.358H57.1721C56.4416 22.358 55.8288 22.4245 55.3337 22.5575C54.8387 22.6875 54.4402 22.8855 54.1383 23.1515C53.8395 23.4175 53.6252 23.7529 53.4954 24.1578C53.3656 24.5597 53.3006 25.0325 53.3006 25.5763V30.4215Z" fill="white"/>
<path d="M58.1916 25.532C58.1916 25.0177 58.2445 24.5331 58.3501 24.078C58.4558 23.6228 58.6082 23.2047 58.8074 22.8234C59.0067 22.4422 59.2497 22.1009 59.5365 21.7994C59.8232 21.495 60.1462 21.2379 60.5055 21.0281C60.8677 20.8183 61.2647 20.6587 61.6963 20.5493C62.128 20.437 62.5868 20.3809 63.0728 20.3809C63.5619 20.3809 64.0207 20.437 64.4494 20.5493C64.881 20.6587 65.2765 20.8183 65.6357 21.0281C65.998 21.2379 66.3225 21.495 66.6092 21.7994C66.896 22.1009 67.139 22.4422 67.3383 22.8234C67.5375 23.2047 67.6899 23.6228 67.7956 24.078C67.9012 24.5331 67.9541 25.0177 67.9541 25.532C67.9541 26.0462 67.9012 26.5309 67.7956 26.986C67.6899 27.4411 67.5375 27.8607 67.3383 28.2449C67.139 28.6262 66.896 28.9675 66.6092 29.2689C66.3225 29.5704 65.998 29.8275 65.6357 30.0403C65.2765 30.2501 64.881 30.4097 64.4494 30.519C64.0207 30.6313 63.5619 30.6875 63.0728 30.6875C62.5868 30.6875 62.128 30.6313 61.6963 30.519C61.2647 30.4097 60.8677 30.2501 60.5055 30.0403C60.1462 29.8275 59.8232 29.5704 59.5365 29.2689C59.2497 28.9675 59.0067 28.6262 58.8074 28.2449C58.6082 27.8607 58.4558 27.4411 58.3501 26.986C58.2445 26.5309 58.1916 26.0462 58.1916 25.532ZM60.0255 25.532C60.0255 26.0787 60.0949 26.5708 60.2338 27.0081C60.3757 27.4426 60.5779 27.8135 60.8405 28.1208C61.1062 28.4252 61.4277 28.6587 61.805 28.8212C62.1823 28.9838 62.6065 29.065 63.0774 29.065C63.5483 29.065 63.9709 28.9838 64.3452 28.8212C64.7226 28.6587 65.0425 28.4252 65.3052 28.1208C65.5678 27.8135 65.7685 27.4426 65.9074 27.0081C66.0493 26.5708 66.1202 26.0787 66.1202 25.532C66.1202 24.9852 66.0493 24.4947 65.9074 24.0602C65.7685 23.6228 65.5678 23.252 65.3052 22.9476C65.0425 22.6432 64.7226 22.4097 64.3452 22.2472C63.9709 22.0846 63.5483 22.0033 63.0774 22.0033C62.6065 22.0033 62.1823 22.0846 61.805 22.2472C61.4277 22.4097 61.1062 22.6432 60.8405 22.9476C60.5779 23.252 60.3757 23.6228 60.2338 24.0602C60.0949 24.4947 60.0255 24.9852 60.0255 25.532Z" fill="white"/>
<path d="M71.006 30.4215H69.1721V17.3H71.006V30.4215Z" fill="white"/>
<path d="M74.2959 30.4215H72.462V17.3H74.2959V30.4215Z" fill="white"/>
<path d="M79.8653 17.7433H84.1262C84.7933 17.7433 85.4197 17.8113 86.0053 17.9472C86.594 18.0831 87.1343 18.2811 87.6264 18.5412C88.1214 18.7983 88.5637 19.1131 88.9531 19.4854C89.3425 19.8548 89.6715 20.2745 89.9402 20.7444C90.2119 21.2143 90.4187 21.73 90.5605 22.2915C90.7054 22.85 90.7779 23.447 90.7779 24.0824C90.7779 24.7178 90.7054 25.3162 90.5605 25.8777C90.4187 26.4363 90.2119 26.9505 89.9402 27.4204C89.6715 27.8873 89.3425 28.307 88.9531 28.6794C88.5637 29.0517 88.1214 29.3665 87.6264 29.6236C87.1343 29.8807 86.594 30.0787 86.0053 30.2176C85.4197 30.3535 84.7933 30.4215 84.1262 30.4215H79.8653V17.7433ZM84.1307 28.6927C84.8703 28.6927 85.5329 28.5877 86.1185 28.3779C86.7072 28.1651 87.2053 27.8607 87.6128 27.4647C88.0203 27.0687 88.3328 26.5855 88.5501 26.0152C88.7674 25.4448 88.8761 24.8005 88.8761 24.0824C88.8761 23.3643 88.7674 22.72 88.5501 22.1496C88.3328 21.5793 88.0203 21.0961 87.6128 20.7001C87.2053 20.304 86.7072 20.0011 86.1185 19.7913C85.5329 19.5785 84.8703 19.4721 84.1307 19.4721H81.7218V28.6927H84.1307Z" fill="white"/>
<path d="M91.8512 25.532C91.8512 25.0177 91.904 24.5331 92.0097 24.078C92.1153 23.6228 92.2677 23.2047 92.467 22.8234C92.6662 22.4422 92.9092 22.1009 93.196 21.7994C93.4828 21.495 93.8058 21.2379 94.165 21.0281C94.5272 20.8183 94.9242 20.6587 95.3559 20.5493C95.7875 20.437 96.2464 20.3809 96.7324 20.3809C97.2214 20.3809 97.6803 20.437 98.1089 20.5493C98.5406 20.6587 98.936 20.8183 99.2953 21.0281C99.6575 21.2379 99.982 21.495 100.269 21.7994C100.556 22.1009 100.799 22.4422 100.998 22.8234C101.197 23.2047 101.349 23.6228 101.455 24.078C101.561 24.5331 101.614 25.0177 101.614 25.532C101.614 26.0462 101.561 26.5309 101.455 26.986C101.349 27.4411 101.197 27.8607 100.998 28.2449C100.799 28.6262 100.556 28.9675 100.269 29.2689C99.982 29.5704 99.6575 29.8275 99.2953 30.0403C98.936 30.2501 98.5406 30.4097 98.1089 30.519C97.6803 30.6313 97.2214 30.6875 96.7324 30.6875C96.2464 30.6875 95.7875 30.6313 95.3559 30.519C94.9242 30.4097 94.5272 30.2501 94.165 30.0403C93.8058 29.8275 93.4828 29.5704 93.196 29.2689C92.9092 28.9675 92.6662 28.6262 92.467 28.2449C92.2677 27.8607 92.1153 27.4411 92.0097 26.986C91.904 26.5309 91.8512 26.0462 91.8512 25.532ZM93.685 25.532C93.685 26.0787 93.7545 26.5708 93.8933 27.0081C94.0352 27.4426 94.2374 27.8135 94.5001 28.1208C94.7657 28.4252 95.0872 28.6587 95.4645 28.8212C95.8419 28.9838 96.266 29.065 96.7369 29.065C97.2078 29.065 97.6304 28.9838 98.0048 28.8212C98.3821 28.6587 98.7021 28.4252 98.9647 28.1208C99.2273 27.8135 99.4281 27.4426 99.5669 27.0081C99.7088 26.5708 99.7798 26.0787 99.7798 25.532C99.7798 24.9852 99.7088 24.4947 99.5669 24.0602C99.4281 23.6228 99.2273 23.252 98.9647 22.9476C98.7021 22.6432 98.3821 22.4097 98.0048 22.2472C97.6304 22.0846 97.2078 22.0033 96.7369 22.0033C96.266 22.0033 95.8419 22.0846 95.4645 22.2472C95.0872 22.4097 94.7657 22.6432 94.5001 22.9476C94.2374 23.252 94.0352 23.6228 93.8933 24.0602C93.7545 24.4947 93.685 24.9852 93.685 25.532Z" fill="white"/>
<path d="M111.106 20.6469L113.647 29.1936L116.151 20.6469H118.007L115.05 30.4215H112.469L109.988 22.3092L107.502 30.4215H104.921L101.964 20.6469H103.866L106.37 29.1936L108.91 20.6469H111.106Z" fill="white"/>
<path d="M120.885 30.4215H119.051V20.6469H120.885V23.4707C121.006 22.9889 121.179 22.5575 121.406 22.1762C121.632 21.795 121.904 21.4714 122.221 21.2054C122.538 20.9394 122.895 20.7355 123.294 20.5937C123.695 20.4518 124.129 20.3809 124.594 20.3809C125.161 20.3809 125.67 20.4858 126.119 20.6956C126.569 20.9055 126.95 21.2084 127.261 21.6044C127.574 21.9974 127.813 22.4777 127.976 23.0451C128.142 23.6095 128.225 24.2464 128.225 24.9557V30.4215H126.391V24.9557C126.391 23.9745 126.178 23.2372 125.753 22.7436C125.327 22.2501 124.686 22.0033 123.828 22.0033C123.366 22.0033 122.953 22.0743 122.588 22.2161C122.225 22.355 121.917 22.5589 121.664 22.8279C121.413 23.0938 121.22 23.4219 121.084 23.812C120.951 24.1991 120.885 24.6395 120.885 25.133V30.4215Z" fill="white"/>
<path d="M78.8187 56.1875L85.5125 49.4938M78.8187 56.1875L72.125 49.4938M78.8187 56.1875L78.8188 44.4735M78.8188 38.3375V41.1266" stroke="#FFF8F5" stroke-width="2" stroke-linecap="round" stroke-linejoin="round"/>
</svg>
