<svg width="121" height="31" viewBox="0 0 121 31" fill="none" xmlns="http://www.w3.org/2000/svg">
<rect y="7" width="121" height="24" rx="12" fill="#5CCC96"/>
<path d="M36.952 1.84V19H34.432V3.964L28.69 19H25.15L19.48 3.958V19H17.02V1.84H21.298L26.956 16.93L32.686 1.84H36.952ZM51.6321 5.77L46.1541 19.834C45.8781 20.538 45.5561 21.146 45.1881 21.658C44.8241 22.17 44.4041 22.592 43.9281 22.924C43.4561 23.26 42.9261 23.508 42.3381 23.668C41.7541 23.828 41.1041 23.908 40.3881 23.908C40.1921 23.908 40.0021 23.902 39.8181 23.89C39.6341 23.878 39.4561 23.862 39.2841 23.842V21.718C39.4961 21.746 39.6921 21.766 39.8721 21.778C40.0561 21.79 40.2321 21.796 40.4001 21.796C41.2001 21.796 41.8521 21.64 42.3561 21.328C42.8601 21.016 43.2381 20.518 43.4901 19.834L43.6581 19.39L38.4081 5.77H40.9281L45.0261 16.786L49.1721 5.77H51.6321ZM58.3638 19V1.84H66.6678C67.2398 1.84 67.7798 1.896 68.2878 2.008C68.7958 2.12 69.2638 2.282 69.6918 2.494C70.1238 2.702 70.5118 2.956 70.8558 3.256C71.1998 3.552 71.4918 3.888 71.7318 4.264C71.9718 4.636 72.1558 5.044 72.2838 5.488C72.4118 5.928 72.4758 6.396 72.4758 6.892C72.4758 7.552 72.3618 8.154 72.1338 8.698C71.9098 9.238 71.5898 9.702 71.1738 10.09C70.7578 10.478 70.2578 10.784 69.6738 11.008C69.0898 11.228 68.4378 11.348 67.7178 11.368C68.3538 11.42 68.9198 11.674 69.4158 12.13C69.9118 12.582 70.3478 13.226 70.7238 14.062L72.9378 19H70.1718L67.9638 14.068C67.8198 13.744 67.6538 13.472 67.4658 13.252C67.2818 13.028 67.0578 12.848 66.7938 12.712C66.5298 12.576 66.2178 12.478 65.8578 12.418C65.4978 12.358 65.0698 12.328 64.5738 12.328H60.8838V19H58.3638ZM66.3438 9.988C66.9078 9.988 67.4138 9.92 67.8618 9.784C68.3098 9.648 68.6878 9.454 68.9958 9.202C69.3078 8.946 69.5458 8.634 69.7098 8.266C69.8738 7.898 69.9557 7.482 69.9557 7.018C69.9557 6.562 69.8758 6.158 69.7158 5.806C69.5558 5.454 69.3218 5.158 69.0138 4.918C68.7058 4.678 68.3258 4.496 67.8738 4.372C67.4258 4.244 66.9118 4.18 66.3318 4.18H60.8838V9.988H66.3438ZM73.4022 12.382C73.4022 11.686 73.4722 11.03 73.6122 10.414C73.7522 9.798 73.9542 9.232 74.2182 8.716C74.4822 8.2 74.8042 7.738 75.1842 7.33C75.5642 6.918 75.9922 6.57 76.4682 6.286C76.9482 6.002 77.4742 5.786 78.0462 5.638C78.6182 5.486 79.2262 5.41 79.8702 5.41C80.5182 5.41 81.1262 5.486 81.6942 5.638C82.2662 5.786 82.7902 6.002 83.2662 6.286C83.7462 6.57 84.1762 6.918 84.5562 7.33C84.9362 7.738 85.2582 8.2 85.5222 8.716C85.7862 9.232 85.9882 9.798 86.1282 10.414C86.2682 11.03 86.3382 11.686 86.3382 12.382C86.3382 13.078 86.2682 13.734 86.1282 14.35C85.9882 14.966 85.7862 15.534 85.5222 16.054C85.2582 16.57 84.9362 17.032 84.5562 17.44C84.1762 17.848 83.7462 18.196 83.2662 18.484C82.7902 18.768 82.2662 18.984 81.6942 19.132C81.1262 19.284 80.5182 19.36 79.8702 19.36C79.2262 19.36 78.6182 19.284 78.0462 19.132C77.4742 18.984 76.9482 18.768 76.4682 18.484C75.9922 18.196 75.5642 17.848 75.1842 17.44C74.8042 17.032 74.4822 16.57 74.2182 16.054C73.9542 15.534 73.7522 14.966 73.6122 14.35C73.4722 13.734 73.4022 13.078 73.4022 12.382ZM75.8322 12.382C75.8322 13.122 75.9242 13.788 76.1082 14.38C76.2962 14.968 76.5642 15.47 76.9122 15.886C77.2642 16.298 77.6902 16.614 78.1902 16.834C78.6902 17.054 79.2522 17.164 79.8762 17.164C80.5002 17.164 81.0602 17.054 81.5562 16.834C82.0562 16.614 82.4802 16.298 82.8282 15.886C83.1762 15.47 83.4422 14.968 83.6262 14.38C83.8142 13.788 83.9082 13.122 83.9082 12.382C83.9082 11.642 83.8142 10.978 83.6262 10.39C83.4422 9.798 83.1762 9.296 82.8282 8.884C82.4802 8.472 82.0562 8.156 81.5562 7.936C81.0602 7.716 80.5002 7.606 79.8762 7.606C79.2522 7.606 78.6902 7.716 78.1902 7.936C77.6902 8.156 77.2642 8.472 76.9122 8.884C76.5642 9.296 76.2962 9.798 76.1082 10.39C75.9242 10.978 75.8322 11.642 75.8322 12.382ZM90.3822 19H87.9522V1.24H90.3822V19ZM104.588 14.614C104.416 15.354 104.148 16.018 103.784 16.606C103.42 17.194 102.976 17.692 102.452 18.1C101.932 18.508 101.34 18.82 100.676 19.036C100.012 19.252 99.2916 19.36 98.5156 19.36C97.8676 19.36 97.2556 19.284 96.6796 19.132C96.1076 18.98 95.5796 18.762 95.0956 18.478C94.6156 18.19 94.1836 17.842 93.7996 17.434C93.4196 17.022 93.0956 16.558 92.8276 16.042C92.5636 15.522 92.3616 14.954 92.2216 14.338C92.0816 13.718 92.0116 13.06 92.0116 12.364C92.0116 11.668 92.0816 11.014 92.2216 10.402C92.3616 9.79 92.5616 9.226 92.8216 8.71C93.0856 8.194 93.4056 7.732 93.7816 7.324C94.1576 6.916 94.5836 6.57 95.0596 6.286C95.5356 6.002 96.0576 5.786 96.6256 5.638C97.1936 5.486 97.7976 5.41 98.4376 5.41C99.3856 5.41 100.242 5.574 101.006 5.902C101.77 6.226 102.422 6.688 102.962 7.288C103.502 7.888 103.918 8.614 104.21 9.466C104.502 10.318 104.648 11.272 104.648 12.328C104.648 12.48 104.644 12.63 104.636 12.778C104.632 12.926 104.622 13.09 104.606 13.27H94.4896C94.5616 13.874 94.7056 14.418 94.9216 14.902C95.1416 15.382 95.4256 15.79 95.7736 16.126C96.1256 16.462 96.5376 16.72 97.0096 16.9C97.4816 17.076 98.0036 17.164 98.5756 17.164C99.4556 17.164 100.192 16.952 100.784 16.528C101.376 16.1 101.834 15.462 102.158 14.614H104.588ZM102.134 11.17C102.054 10.594 101.914 10.086 101.714 9.646C101.514 9.202 101.258 8.83 100.946 8.53C100.634 8.226 100.268 7.996 99.8476 7.84C99.4316 7.684 98.9656 7.606 98.4496 7.606C97.9216 7.606 97.4376 7.688 96.9976 7.852C96.5576 8.012 96.1696 8.246 95.8336 8.554C95.5016 8.858 95.2256 9.232 95.0056 9.676C94.7856 10.116 94.6296 10.614 94.5376 11.17H102.134Z" fill="white"/>
</svg>
