<svg width="509" height="222" viewBox="0 0 509 222" fill="none" xmlns="http://www.w3.org/2000/svg">
<rect y="7" width="240" height="56" rx="16" fill="white"/>
<path fill-rule="evenodd" clip-rule="evenodd" d="M24 45C29.5228 45 34 40.5228 34 35C34 29.4772 29.5228 25 24 25C18.4772 25 14 29.4772 14 35C14 40.5228 18.4772 45 24 45ZM24.4697 31.4697C24.7626 31.1768 25.2374 31.1768 25.5303 31.4697L28.5303 34.4697C28.8232 34.7626 28.8232 35.2374 28.5303 35.5303L25.5303 38.5303C25.2374 38.8232 24.7626 38.8232 24.4697 38.5303C24.1768 38.2374 24.1768 37.7626 24.4697 37.4697L26.1893 35.75H20C19.5858 35.75 19.25 35.4142 19.25 35C19.25 34.5858 19.5858 34.25 20 34.25H26.1893L24.4697 32.5303C24.1768 32.2374 24.1768 31.7626 24.4697 31.4697Z" fill="#1C274C"/>
<path d="M67.664 21.12L73.032 41.784L78.512 21.12H82L75.752 44H70.712L65.432 24.312L60.056 44H55.016L48.88 21.12H52.448L57.816 41.784L63.296 21.12H67.664ZM98.8355 38.152C98.6062 39.1387 98.2488 40.024 97.7635 40.808C97.2782 41.592 96.6862 42.256 95.9875 42.8C95.2942 43.344 94.5048 43.76 93.6195 44.048C92.7342 44.336 91.7742 44.48 90.7395 44.48C89.8755 44.48 89.0595 44.3787 88.2915 44.176C87.5288 43.9733 86.8248 43.6827 86.1795 43.304C85.5395 42.92 84.9635 42.456 84.4515 41.912C83.9448 41.3627 83.5128 40.744 83.1555 40.056C82.8035 39.3627 82.5342 38.6053 82.3475 37.784C82.1608 36.9573 82.0675 36.08 82.0675 35.152C82.0675 34.224 82.1608 33.352 82.3475 32.536C82.5342 31.72 82.8008 30.968 83.1475 30.28C83.4995 29.592 83.9262 28.976 84.4275 28.432C84.9288 27.888 85.4968 27.4267 86.1315 27.048C86.7662 26.6693 87.4622 26.3813 88.2195 26.184C88.9768 25.9813 89.7822 25.88 90.6355 25.88C91.8995 25.88 93.0408 26.0987 94.0595 26.536C95.0782 26.968 95.9475 27.584 96.6675 28.384C97.3875 29.184 97.9422 30.152 98.3315 31.288C98.7208 32.424 98.9155 33.696 98.9155 35.104C98.9155 35.3067 98.9102 35.5067 98.8995 35.704C98.8942 35.9013 98.8808 36.12 98.8595 36.36H85.3715C85.4675 37.1653 85.6595 37.8907 85.9475 38.536C86.2408 39.176 86.6195 39.72 87.0835 40.168C87.5528 40.616 88.1022 40.96 88.7315 41.2C89.3608 41.4347 90.0568 41.552 90.8195 41.552C91.9928 41.552 92.9742 41.2693 93.7635 40.704C94.5528 40.1333 95.1635 39.2827 95.5955 38.152H98.8355ZM95.5635 33.56C95.4568 32.792 95.2702 32.1147 95.0035 31.528C94.7368 30.936 94.3955 30.44 93.9795 30.04C93.5635 29.6347 93.0755 29.328 92.5155 29.12C91.9608 28.912 91.3395 28.808 90.6515 28.808C89.9475 28.808 89.3022 28.9173 88.7155 29.136C88.1288 29.3493 87.6115 29.6613 87.1635 30.072C86.7208 30.4773 86.3528 30.976 86.0595 31.568C85.7662 32.1547 85.5582 32.8187 85.4355 33.56H95.5635ZM104.301 31.792C104.531 30.8853 104.851 30.0693 105.261 29.344C105.672 28.6133 106.157 27.992 106.717 27.48C107.277 26.968 107.904 26.5733 108.597 26.296C109.296 26.0187 110.045 25.88 110.845 25.88C111.571 25.88 112.259 25.984 112.909 26.192C113.56 26.4 114.16 26.6987 114.709 27.088C115.264 27.4773 115.763 27.9493 116.205 28.504C116.653 29.0533 117.032 29.672 117.341 30.36C117.651 31.048 117.888 31.7973 118.053 32.608C118.224 33.4187 118.309 34.2747 118.309 35.176C118.309 36.0773 118.224 36.9333 118.053 37.744C117.888 38.5547 117.651 39.3067 117.341 40C117.032 40.688 116.653 41.3093 116.205 41.864C115.763 42.4133 115.264 42.8827 114.709 43.272C114.16 43.6613 113.56 43.96 112.909 44.168C112.259 44.376 111.571 44.48 110.845 44.48C110.045 44.48 109.296 44.3413 108.597 44.064C107.904 43.7867 107.277 43.392 106.717 42.88C106.157 42.368 105.672 41.7467 105.261 41.016C104.851 40.2853 104.531 39.4667 104.301 38.56V44H101.061V20.32H104.301V31.792ZM104.301 35.176C104.301 36.184 104.424 37.088 104.669 37.888C104.92 38.6827 105.28 39.3573 105.749 39.912C106.219 40.4667 106.789 40.8933 107.461 41.192C108.133 41.4853 108.893 41.632 109.741 41.632C110.605 41.632 111.368 41.4933 112.029 41.216C112.696 40.9333 113.253 40.52 113.701 39.976C114.149 39.4267 114.488 38.752 114.717 37.952C114.952 37.1467 115.069 36.2213 115.069 35.176C115.069 34.1307 114.952 33.208 114.717 32.408C114.488 31.6027 114.149 30.928 113.701 30.384C113.253 29.84 112.696 29.4293 112.029 29.152C111.368 28.8693 110.605 28.728 109.741 28.728C108.893 28.728 108.133 28.8747 107.461 29.168C106.789 29.4613 106.219 29.8853 105.749 30.44C105.28 30.9947 104.92 31.672 104.669 32.472C104.424 33.2667 104.301 34.168 104.301 35.176ZM127.735 21.12H135.263C136.442 21.12 137.548 21.2427 138.583 21.488C139.623 21.7333 140.578 22.0907 141.447 22.56C142.322 23.024 143.103 23.592 143.791 24.264C144.479 24.9307 145.06 25.688 145.535 26.536C146.015 27.384 146.38 28.3147 146.631 29.328C146.887 30.336 147.015 31.4133 147.015 32.56C147.015 33.7067 146.887 34.7867 146.631 35.8C146.38 36.808 146.015 37.736 145.535 38.584C145.06 39.4267 144.479 40.184 143.791 40.856C143.103 41.528 142.322 42.096 141.447 42.56C140.578 43.024 139.623 43.3813 138.583 43.632C137.548 43.8773 136.442 44 135.263 44H127.735V21.12ZM135.271 40.88C136.578 40.88 137.748 40.6907 138.783 40.312C139.823 39.928 140.703 39.3787 141.423 38.664C142.143 37.9493 142.695 37.0773 143.079 36.048C143.463 35.0187 143.655 33.856 143.655 32.56C143.655 31.264 143.463 30.1013 143.079 29.072C142.695 28.0427 142.143 27.1707 141.423 26.456C140.703 25.7413 139.823 25.1947 138.783 24.816C137.748 24.432 136.578 24.24 135.271 24.24H131.015V40.88H135.271ZM165.679 38.152C165.45 39.1387 165.093 40.024 164.607 40.808C164.122 41.592 163.53 42.256 162.831 42.8C162.138 43.344 161.349 43.76 160.463 44.048C159.578 44.336 158.618 44.48 157.583 44.48C156.719 44.48 155.903 44.3787 155.135 44.176C154.373 43.9733 153.669 43.6827 153.023 43.304C152.383 42.92 151.807 42.456 151.295 41.912C150.789 41.3627 150.357 40.744 149.999 40.056C149.647 39.3627 149.378 38.6053 149.191 37.784C149.005 36.9573 148.911 36.08 148.911 35.152C148.911 34.224 149.005 33.352 149.191 32.536C149.378 31.72 149.645 30.968 149.991 30.28C150.343 29.592 150.77 28.976 151.271 28.432C151.773 27.888 152.341 27.4267 152.975 27.048C153.61 26.6693 154.306 26.3813 155.063 26.184C155.821 25.9813 156.626 25.88 157.479 25.88C158.743 25.88 159.885 26.0987 160.903 26.536C161.922 26.968 162.791 27.584 163.511 28.384C164.231 29.184 164.786 30.152 165.175 31.288C165.565 32.424 165.759 33.696 165.759 35.104C165.759 35.3067 165.754 35.5067 165.743 35.704C165.738 35.9013 165.725 36.12 165.703 36.36H152.215C152.311 37.1653 152.503 37.8907 152.791 38.536C153.085 39.176 153.463 39.72 153.927 40.168C154.397 40.616 154.946 40.96 155.575 41.2C156.205 41.4347 156.901 41.552 157.663 41.552C158.837 41.552 159.818 41.2693 160.607 40.704C161.397 40.1333 162.007 39.2827 162.439 38.152H165.679ZM162.407 33.56C162.301 32.792 162.114 32.1147 161.847 31.528C161.581 30.936 161.239 30.44 160.823 30.04C160.407 29.6347 159.919 29.328 159.359 29.12C158.805 28.912 158.183 28.808 157.495 28.808C156.791 28.808 156.146 28.9173 155.559 29.136C154.973 29.3493 154.455 29.6613 154.007 30.072C153.565 30.4773 153.197 30.976 152.903 31.568C152.61 32.1547 152.402 32.8187 152.279 33.56H162.407ZM175.073 25.88C176.273 25.88 177.34 26.016 178.273 26.288C179.212 26.56 180.001 26.9493 180.641 27.456C181.286 27.9573 181.777 28.568 182.113 29.288C182.449 30.0027 182.617 30.8053 182.617 31.696H179.449C179.449 31.2427 179.353 30.832 179.161 30.464C178.974 30.0907 178.694 29.7733 178.321 29.512C177.953 29.2453 177.497 29.04 176.953 28.896C176.409 28.752 175.782 28.68 175.073 28.68C174.433 28.68 173.849 28.7387 173.321 28.856C172.798 28.9733 172.348 29.1413 171.969 29.36C171.59 29.5733 171.297 29.832 171.089 30.136C170.881 30.4347 170.777 30.768 170.777 31.136C170.777 31.4133 170.836 31.6587 170.953 31.872C171.07 32.08 171.23 32.2613 171.433 32.416C171.636 32.5707 171.873 32.704 172.145 32.816C172.417 32.9227 172.708 33.016 173.017 33.096C173.332 33.176 173.657 33.2453 173.993 33.304C174.329 33.3573 174.66 33.4107 174.985 33.464L176.169 33.648C176.66 33.7227 177.174 33.8107 177.713 33.912C178.257 34.008 178.79 34.1387 179.313 34.304C179.841 34.464 180.342 34.6693 180.817 34.92C181.297 35.1653 181.718 35.4747 182.081 35.848C182.444 36.2213 182.732 36.6693 182.945 37.192C183.158 37.7093 183.265 38.3253 183.265 39.04C183.265 39.9093 183.094 40.6827 182.753 41.36C182.412 42.032 181.908 42.6 181.241 43.064C180.574 43.528 179.75 43.88 178.769 44.12C177.788 44.36 176.654 44.48 175.369 44.48C174.03 44.48 172.857 44.3493 171.849 44.088C170.841 43.8267 170.001 43.4427 169.329 42.936C168.657 42.4293 168.15 41.808 167.809 41.072C167.473 40.3307 167.305 39.48 167.305 38.52H170.465C170.465 39.5333 170.865 40.3147 171.665 40.864C172.465 41.408 173.697 41.68 175.361 41.68C176.113 41.68 176.782 41.624 177.369 41.512C177.956 41.4 178.452 41.2347 178.857 41.016C179.262 40.7973 179.572 40.528 179.785 40.208C179.998 39.888 180.105 39.5227 180.105 39.112C180.105 38.792 180.044 38.512 179.921 38.272C179.798 38.0267 179.628 37.816 179.409 37.64C179.19 37.4587 178.932 37.304 178.633 37.176C178.34 37.0427 178.02 36.928 177.673 36.832C177.326 36.736 176.964 36.6533 176.585 36.584C176.212 36.5093 175.833 36.44 175.449 36.376L174.273 36.176C173.825 36.1013 173.35 36.016 172.849 35.92C172.348 35.8187 171.849 35.6933 171.353 35.544C170.862 35.3893 170.39 35.1973 169.937 34.968C169.489 34.7333 169.092 34.4453 168.745 34.104C168.404 33.7627 168.129 33.3547 167.921 32.88C167.718 32.4053 167.617 31.848 167.617 31.208C167.617 30.3973 167.788 29.664 168.129 29.008C168.476 28.352 168.969 27.792 169.609 27.328C170.254 26.864 171.036 26.5067 171.953 26.256C172.876 26.0053 173.916 25.88 175.073 25.88ZM188.6 24.32H185.2V20.32H188.6V24.32ZM188.52 44H185.28V26.36H188.52V44ZM207.941 26.36V40.8C207.941 41.7707 207.847 42.6853 207.661 43.544C207.474 44.4027 207.205 45.192 206.853 45.912C206.506 46.632 206.079 47.2773 205.573 47.848C205.066 48.424 204.493 48.912 203.853 49.312C203.218 49.712 202.519 50.016 201.757 50.224C200.999 50.4373 200.191 50.544 199.333 50.544C198.597 50.544 197.893 50.4667 197.221 50.312C196.549 50.1627 195.922 49.9467 195.341 49.664C194.765 49.3813 194.239 49.04 193.765 48.64C193.295 48.2453 192.893 47.8027 192.557 47.312C192.221 46.8213 191.962 46.288 191.781 45.712C191.599 45.1413 191.509 44.544 191.509 43.92H194.749C194.749 44.2773 194.802 44.6187 194.909 44.944C195.021 45.2693 195.175 45.5733 195.373 45.856C195.575 46.144 195.815 46.4027 196.093 46.632C196.375 46.8667 196.687 47.064 197.029 47.224C197.37 47.3893 197.735 47.5173 198.125 47.608C198.519 47.6987 198.93 47.744 199.357 47.744C200.167 47.744 200.901 47.5787 201.557 47.248C202.218 46.9173 202.781 46.448 203.245 45.84C203.709 45.232 204.066 44.5013 204.317 43.648C204.573 42.7947 204.701 41.8453 204.701 40.8V38.016C204.471 38.88 204.149 39.6613 203.733 40.36C203.322 41.0587 202.831 41.656 202.261 42.152C201.695 42.6427 201.058 43.0213 200.349 43.288C199.645 43.5493 198.885 43.68 198.069 43.68C197.359 43.68 196.685 43.5813 196.045 43.384C195.405 43.1813 194.81 42.896 194.261 42.528C193.717 42.1547 193.223 41.704 192.781 41.176C192.343 40.6427 191.97 40.048 191.661 39.392C191.351 38.7307 191.111 38.0133 190.941 37.24C190.775 36.4613 190.693 35.64 190.693 34.776C190.693 33.912 190.775 33.0933 190.941 32.32C191.111 31.5413 191.351 30.824 191.661 30.168C191.97 29.5067 192.343 28.912 192.781 28.384C193.223 27.856 193.717 27.408 194.261 27.04C194.81 26.6667 195.405 26.3813 196.045 26.184C196.685 25.9813 197.359 25.88 198.069 25.88C198.885 25.88 199.645 26.0133 200.349 26.28C201.058 26.5413 201.695 26.92 202.261 27.416C202.831 27.9067 203.322 28.5013 203.733 29.2C204.149 29.8987 204.471 30.68 204.701 31.544V26.36H207.941ZM204.701 34.776C204.701 33.832 204.575 32.9867 204.325 32.24C204.074 31.488 203.711 30.8533 203.237 30.336C202.767 29.8133 202.189 29.416 201.501 29.144C200.818 28.8667 200.042 28.728 199.173 28.728C198.33 28.728 197.583 28.8587 196.933 29.12C196.282 29.3813 195.733 29.768 195.285 30.28C194.842 30.792 194.506 31.424 194.277 32.176C194.047 32.928 193.933 33.7947 193.933 34.776C193.933 35.7573 194.047 36.624 194.277 37.376C194.511 38.128 194.85 38.76 195.293 39.272C195.735 39.784 196.282 40.1733 196.933 40.44C197.589 40.7013 198.335 40.832 199.173 40.832C200.042 40.832 200.818 40.6933 201.501 40.416C202.189 40.1387 202.767 39.7413 203.237 39.224C203.711 38.7013 204.074 38.0667 204.325 37.32C204.575 36.568 204.701 35.72 204.701 34.776ZM213.739 44H210.499V26.36H213.739V31.456C213.952 30.5867 214.259 29.808 214.659 29.12C215.059 28.432 215.539 27.848 216.099 27.368C216.659 26.888 217.291 26.52 217.995 26.264C218.704 26.008 219.469 25.88 220.291 25.88C221.293 25.88 222.192 26.0693 222.987 26.448C223.781 26.8267 224.453 27.3733 225.003 28.088C225.557 28.7973 225.979 29.664 226.267 30.688C226.56 31.7067 226.707 32.856 226.707 34.136V44H223.467V34.136C223.467 32.3653 223.091 31.0347 222.339 30.144C221.587 29.2533 220.453 28.808 218.939 28.808C218.123 28.808 217.392 28.936 216.747 29.192C216.107 29.4427 215.563 29.8107 215.115 30.296C214.672 30.776 214.331 31.368 214.091 32.072C213.856 32.7707 213.739 33.5653 213.739 34.456V44Z" fill="#1A212B"/>
<rect x="254" y="7" width="307" height="56" rx="16" fill="white"/>
<path fill-rule="evenodd" clip-rule="evenodd" d="M278 45C283.523 45 288 40.5228 288 35C288 29.4772 283.523 25 278 25C272.477 25 268 29.4772 268 35C268 40.5228 272.477 45 278 45ZM278.47 31.4697C278.763 31.1768 279.237 31.1768 279.53 31.4697L282.53 34.4697C282.823 34.7626 282.823 35.2374 282.53 35.5303L279.53 38.5303C279.237 38.8232 278.763 38.8232 278.47 38.5303C278.177 38.2374 278.177 37.7626 278.47 37.4697L280.189 35.75H274C273.586 35.75 273.25 35.4142 273.25 35C273.25 34.5858 273.586 34.25 274 34.25H280.189L278.47 32.5303C278.177 32.2374 278.177 31.7626 278.47 31.4697Z" fill="#1C274C"/>
<path d="M329.936 21.12V44H326.576V23.952L318.92 44H314.2L306.64 23.944V44H303.36V21.12H309.064L316.608 41.24L324.248 21.12H329.936ZM332.161 35.176C332.161 34.248 332.255 33.3733 332.441 32.552C332.628 31.7307 332.897 30.976 333.249 30.288C333.601 29.6 334.031 28.984 334.537 28.44C335.044 27.8907 335.615 27.4267 336.249 27.048C336.889 26.6693 337.591 26.3813 338.353 26.184C339.116 25.9813 339.927 25.88 340.785 25.88C341.649 25.88 342.46 25.9813 343.217 26.184C343.98 26.3813 344.679 26.6693 345.313 27.048C345.953 27.4267 346.527 27.8907 347.033 28.44C347.54 28.984 347.969 29.6 348.321 30.288C348.673 30.976 348.943 31.7307 349.129 32.552C349.316 33.3733 349.409 34.248 349.409 35.176C349.409 36.104 349.316 36.9787 349.129 37.8C348.943 38.6213 348.673 39.3787 348.321 40.072C347.969 40.76 347.54 41.376 347.033 41.92C346.527 42.464 345.953 42.928 345.313 43.312C344.679 43.6907 343.98 43.9787 343.217 44.176C342.46 44.3787 341.649 44.48 340.785 44.48C339.927 44.48 339.116 44.3787 338.353 44.176C337.591 43.9787 336.889 43.6907 336.249 43.312C335.615 42.928 335.044 42.464 334.537 41.92C334.031 41.376 333.601 40.76 333.249 40.072C332.897 39.3787 332.628 38.6213 332.441 37.8C332.255 36.9787 332.161 36.104 332.161 35.176ZM335.401 35.176C335.401 36.1627 335.524 37.0507 335.769 37.84C336.02 38.624 336.377 39.2933 336.841 39.848C337.311 40.3973 337.879 40.8187 338.545 41.112C339.212 41.4053 339.961 41.552 340.793 41.552C341.625 41.552 342.372 41.4053 343.033 41.112C343.7 40.8187 344.265 40.3973 344.729 39.848C345.193 39.2933 345.548 38.624 345.793 37.84C346.044 37.0507 346.169 36.1627 346.169 35.176C346.169 34.1893 346.044 33.304 345.793 32.52C345.548 31.7307 345.193 31.0613 344.729 30.512C344.265 29.9627 343.7 29.5413 343.033 29.248C342.372 28.9547 341.625 28.808 340.793 28.808C339.961 28.808 339.212 28.9547 338.545 29.248C337.879 29.5413 337.311 29.9627 336.841 30.512C336.377 31.0613 336.02 31.7307 335.769 32.52C335.524 33.304 335.401 34.1893 335.401 35.176ZM362.151 43.864C360.802 44.2693 359.586 44.472 358.503 44.472C357.623 44.472 356.845 44.336 356.167 44.064C355.495 43.7973 354.93 43.4 354.471 42.872C354.013 42.3387 353.663 41.68 353.423 40.896C353.189 40.1067 353.071 39.1947 353.071 38.16V29.08H350.671V26.36H353.071V22.296H356.311V26.36H362.151V29.08H356.311V38.168C356.311 39.336 356.53 40.2 356.967 40.76C357.41 41.3147 358.103 41.592 359.047 41.592C359.415 41.592 359.853 41.5493 360.359 41.464C360.871 41.3787 361.469 41.2453 362.151 41.064V43.864ZM367.756 24.32H364.356V20.32H367.756V24.32ZM367.676 44H364.436V26.36H367.676V44ZM369.849 35.176C369.849 34.248 369.942 33.3733 370.129 32.552C370.315 31.7307 370.585 30.976 370.937 30.288C371.289 29.6 371.718 28.984 372.225 28.44C372.731 27.8907 373.302 27.4267 373.937 27.048C374.577 26.6693 375.278 26.3813 376.041 26.184C376.803 25.9813 377.614 25.88 378.473 25.88C379.337 25.88 380.147 25.9813 380.905 26.184C381.667 26.3813 382.366 26.6693 383.001 27.048C383.641 27.4267 384.214 27.8907 384.721 28.44C385.227 28.984 385.657 29.6 386.009 30.288C386.361 30.976 386.63 31.7307 386.817 32.552C387.003 33.3733 387.097 34.248 387.097 35.176C387.097 36.104 387.003 36.9787 386.817 37.8C386.63 38.6213 386.361 39.3787 386.009 40.072C385.657 40.76 385.227 41.376 384.721 41.92C384.214 42.464 383.641 42.928 383.001 43.312C382.366 43.6907 381.667 43.9787 380.905 44.176C380.147 44.3787 379.337 44.48 378.473 44.48C377.614 44.48 376.803 44.3787 376.041 44.176C375.278 43.9787 374.577 43.6907 373.937 43.312C373.302 42.928 372.731 42.464 372.225 41.92C371.718 41.376 371.289 40.76 370.937 40.072C370.585 39.3787 370.315 38.6213 370.129 37.8C369.942 36.9787 369.849 36.104 369.849 35.176ZM373.089 35.176C373.089 36.1627 373.211 37.0507 373.457 37.84C373.707 38.624 374.065 39.2933 374.529 39.848C374.998 40.3973 375.566 40.8187 376.233 41.112C376.899 41.4053 377.649 41.552 378.481 41.552C379.313 41.552 380.059 41.4053 380.721 41.112C381.387 40.8187 381.953 40.3973 382.417 39.848C382.881 39.2933 383.235 38.624 383.481 37.84C383.731 37.0507 383.857 36.1627 383.857 35.176C383.857 34.1893 383.731 33.304 383.481 32.52C383.235 31.7307 382.881 31.0613 382.417 30.512C381.953 29.9627 381.387 29.5413 380.721 29.248C380.059 28.9547 379.313 28.808 378.481 28.808C377.649 28.808 376.899 28.9547 376.233 29.248C375.566 29.5413 374.998 29.9627 374.529 30.512C374.065 31.0613 373.707 31.7307 373.457 32.52C373.211 33.304 373.089 34.1893 373.089 35.176ZM392.489 44H389.249V26.36H392.489V31.456C392.702 30.5867 393.009 29.808 393.409 29.12C393.809 28.432 394.289 27.848 394.849 27.368C395.409 26.888 396.041 26.52 396.745 26.264C397.454 26.008 398.219 25.88 399.041 25.88C400.043 25.88 400.942 26.0693 401.737 26.448C402.531 26.8267 403.203 27.3733 403.753 28.088C404.307 28.7973 404.729 29.664 405.017 30.688C405.31 31.7067 405.457 32.856 405.457 34.136V44H402.217V34.136C402.217 32.3653 401.841 31.0347 401.089 30.144C400.337 29.2533 399.203 28.808 397.689 28.808C396.873 28.808 396.142 28.936 395.497 29.192C394.857 29.4427 394.313 29.8107 393.865 30.296C393.422 30.776 393.081 31.368 392.841 32.072C392.606 32.7707 392.489 33.5653 392.489 34.456V44ZM418.324 32.56C418.324 33.936 418.484 35.1707 418.804 36.264C419.129 37.3573 419.598 38.2853 420.212 39.048C420.825 39.8053 421.574 40.3867 422.46 40.792C423.35 41.1973 424.364 41.4 425.5 41.4C426.209 41.4 426.886 41.3253 427.532 41.176C428.177 41.0213 428.777 40.8053 429.332 40.528C429.886 40.2453 430.39 39.9067 430.844 39.512C431.297 39.112 431.686 38.6693 432.012 38.184C432.342 37.6933 432.601 37.1627 432.788 36.592C432.974 36.0213 433.081 35.424 433.108 34.8H425.196V31.76H436.316V44H433.116V37.544C432.844 38.5893 432.444 39.5387 431.916 40.392C431.388 41.2453 430.756 41.976 430.02 42.584C429.284 43.1867 428.454 43.6533 427.532 43.984C426.614 44.3147 425.628 44.48 424.572 44.48C423.633 44.48 422.745 44.344 421.908 44.072C421.07 43.8053 420.294 43.424 419.58 42.928C418.87 42.4267 418.23 41.8213 417.66 41.112C417.089 40.4027 416.604 39.608 416.204 38.728C415.804 37.8427 415.497 36.8827 415.284 35.848C415.07 34.808 414.964 33.712 414.964 32.56C414.964 31.376 415.081 30.2613 415.316 29.216C415.55 28.1653 415.889 27.2 416.332 26.32C416.774 25.4347 417.313 24.6427 417.948 23.944C418.582 23.24 419.3 22.6453 420.1 22.16C420.9 21.6693 421.774 21.2933 422.724 21.032C423.673 20.7707 424.681 20.64 425.748 20.64C427.06 20.64 428.286 20.8373 429.428 21.232C430.569 21.6213 431.585 22.1813 432.476 22.912C433.372 23.6373 434.124 24.5173 434.732 25.552C435.34 26.5867 435.766 27.7493 436.012 29.04H432.652C432.454 28.1973 432.15 27.448 431.74 26.792C431.329 26.136 430.828 25.584 430.236 25.136C429.644 24.688 428.969 24.3467 428.212 24.112C427.46 23.8773 426.641 23.76 425.756 23.76C424.598 23.76 423.558 23.9627 422.636 24.368C421.718 24.768 420.94 25.3467 420.3 26.104C419.66 26.856 419.169 27.776 418.828 28.864C418.492 29.952 418.324 31.184 418.324 32.56ZM442.207 44H438.968V26.36H442.207V31.992C442.416 31.112 442.712 30.3253 443.096 29.632C443.485 28.9333 443.965 28.3413 444.536 27.856C445.106 27.3707 445.765 27 446.512 26.744C447.264 26.488 448.106 26.36 449.04 26.36H449.848V29.448H449.048C447.757 29.448 446.674 29.568 445.8 29.808C444.925 30.0427 444.221 30.4 443.688 30.88C443.16 31.36 442.781 31.9653 442.552 32.696C442.322 33.4213 442.207 34.2747 442.207 35.256V44ZM451.289 32.504C451.289 31.4907 451.475 30.576 451.849 29.76C452.222 28.944 452.755 28.248 453.449 27.672C454.147 27.096 454.99 26.6533 455.977 26.344C456.969 26.0347 458.083 25.88 459.321 25.88C460.627 25.88 461.798 26.056 462.833 26.408C463.867 26.7547 464.745 27.256 465.465 27.912C466.185 28.568 466.737 29.3707 467.121 30.32C467.505 31.264 467.697 32.336 467.697 33.536V44H464.457V39.256C464.243 40.0667 463.918 40.7947 463.481 41.44C463.049 42.0853 462.521 42.6347 461.897 43.088C461.278 43.536 460.571 43.88 459.777 44.12C458.982 44.36 458.121 44.48 457.193 44.48C456.227 44.48 455.35 44.352 454.561 44.096C453.771 43.84 453.094 43.48 452.529 43.016C451.969 42.552 451.534 41.9947 451.225 41.344C450.921 40.688 450.769 39.96 450.769 39.16C450.769 38.3547 450.926 37.6293 451.241 36.984C451.561 36.3387 452.017 35.792 452.609 35.344C453.206 34.8907 453.929 34.544 454.777 34.304C455.63 34.064 456.587 33.944 457.649 33.944H464.457V33.536C464.457 32.8107 464.334 32.1573 464.089 31.576C463.849 30.9893 463.505 30.4933 463.057 30.088C462.609 29.6773 462.065 29.3627 461.425 29.144C460.785 28.9253 460.065 28.816 459.265 28.816C458.449 28.816 457.742 28.904 457.145 29.08C456.553 29.256 456.062 29.5067 455.673 29.832C455.289 30.152 455.001 30.5387 454.809 30.992C454.622 31.4453 454.529 31.9493 454.529 32.504H451.289ZM457.617 36.664C456.417 36.664 455.507 36.8667 454.889 37.272C454.275 37.672 453.969 38.2667 453.969 39.056C453.969 39.472 454.057 39.8427 454.233 40.168C454.414 40.4933 454.678 40.7653 455.025 40.984C455.371 41.2027 455.798 41.3707 456.305 41.488C456.817 41.6 457.403 41.656 458.065 41.656C459.003 41.656 459.862 41.5467 460.641 41.328C461.425 41.104 462.099 40.7947 462.665 40.4C463.23 40 463.67 39.5253 463.985 38.976C464.299 38.4213 464.457 37.8133 464.457 37.152V36.664H457.617ZM473.426 31.792C473.656 30.8853 473.976 30.0693 474.386 29.344C474.797 28.6133 475.282 27.992 475.842 27.48C476.402 26.968 477.029 26.5733 477.722 26.296C478.421 26.0187 479.17 25.88 479.97 25.88C480.696 25.88 481.384 25.984 482.034 26.192C482.685 26.4 483.285 26.6987 483.834 27.088C484.389 27.4773 484.888 27.9493 485.33 28.504C485.778 29.0533 486.157 29.672 486.466 30.36C486.776 31.048 487.013 31.7973 487.178 32.608C487.349 33.4187 487.434 34.2747 487.434 35.176C487.434 36.0773 487.349 36.9333 487.178 37.744C487.013 38.5547 486.776 39.3067 486.466 40C486.157 40.688 485.778 41.3093 485.33 41.864C484.888 42.4133 484.389 42.8827 483.834 43.272C483.285 43.6613 482.685 43.96 482.034 44.168C481.384 44.376 480.696 44.48 479.97 44.48C479.17 44.48 478.421 44.3413 477.722 44.064C477.029 43.7867 476.402 43.392 475.842 42.88C475.282 42.368 474.797 41.7467 474.386 41.016C473.976 40.2853 473.656 39.4667 473.426 38.56V50.04H470.186V26.36H473.426V31.792ZM473.426 35.176C473.426 36.184 473.549 37.088 473.794 37.888C474.045 38.6827 474.405 39.3573 474.874 39.912C475.344 40.4667 475.914 40.8933 476.586 41.192C477.258 41.4853 478.018 41.632 478.866 41.632C479.73 41.632 480.493 41.4933 481.154 41.216C481.821 40.9333 482.378 40.52 482.826 39.976C483.274 39.4267 483.613 38.752 483.842 37.952C484.077 37.1467 484.194 36.2213 484.194 35.176C484.194 34.1307 484.077 33.208 483.842 32.408C483.613 31.6027 483.274 30.928 482.826 30.384C482.378 29.84 481.821 29.4293 481.154 29.152C480.493 28.8693 479.73 28.728 478.866 28.728C478.018 28.728 477.258 28.8747 476.586 29.168C475.914 29.4613 475.344 29.8853 474.874 30.44C474.405 30.9947 474.045 31.672 473.794 32.472C473.549 33.2667 473.426 34.168 473.426 35.176ZM492.832 44H489.593V20.32H492.832V31.456C493.046 30.5867 493.353 29.808 493.753 29.12C494.153 28.432 494.633 27.848 495.193 27.368C495.753 26.888 496.385 26.52 497.089 26.264C497.798 26.008 498.563 25.88 499.385 25.88C500.387 25.88 501.286 26.0693 502.081 26.448C502.875 26.8267 503.547 27.3733 504.097 28.088C504.651 28.7973 505.073 29.664 505.361 30.688C505.654 31.7067 505.801 32.856 505.801 34.136V44H502.561V34.136C502.561 32.3653 502.185 31.0347 501.433 30.144C500.681 29.2533 499.547 28.808 498.033 28.808C497.217 28.808 496.486 28.936 495.841 29.192C495.201 29.4427 494.657 29.8107 494.209 30.296C493.766 30.776 493.425 31.368 493.185 32.072C492.95 32.7707 492.832 33.5653 492.832 34.456V44ZM511.6 24.32H508.2V20.32H511.6V24.32ZM511.52 44H508.28V26.36H511.52V44ZM516.933 35.176C516.933 36.1627 517.055 37.0507 517.301 37.84C517.551 38.624 517.909 39.2933 518.373 39.848C518.842 40.3973 519.41 40.8187 520.077 41.112C520.743 41.4053 521.492 41.552 522.325 41.552C523.055 41.552 523.701 41.4427 524.261 41.224C524.821 41.0053 525.303 40.7067 525.709 40.328C526.114 39.944 526.442 39.4987 526.693 38.992C526.943 38.48 527.122 37.9333 527.229 37.352H530.469C530.383 38.0187 530.231 38.6587 530.013 39.272C529.794 39.8853 529.514 40.456 529.173 40.984C528.831 41.512 528.429 41.992 527.965 42.424C527.506 42.8507 526.989 43.2187 526.413 43.528C525.837 43.832 525.207 44.0667 524.525 44.232C523.842 44.3973 523.106 44.48 522.317 44.48C521.458 44.48 520.647 44.3787 519.885 44.176C519.122 43.9787 518.421 43.6907 517.781 43.312C517.146 42.928 516.575 42.464 516.069 41.92C515.562 41.376 515.133 40.76 514.781 40.072C514.429 39.3787 514.159 38.6213 513.973 37.8C513.786 36.9787 513.693 36.104 513.693 35.176C513.693 34.248 513.786 33.3733 513.973 32.552C514.159 31.7307 514.429 30.976 514.781 30.288C515.133 29.6 515.562 28.984 516.069 28.44C516.575 27.8907 517.146 27.4267 517.781 27.048C518.421 26.6693 519.122 26.3813 519.885 26.184C520.647 25.9813 521.458 25.88 522.317 25.88C523.106 25.88 523.842 25.9627 524.525 26.128C525.213 26.2933 525.845 26.5307 526.421 26.84C526.997 27.144 527.514 27.512 527.973 27.944C528.437 28.3707 528.837 28.848 529.173 29.376C529.514 29.904 529.794 30.4747 530.013 31.088C530.231 31.7013 530.383 32.3413 530.469 33.008H527.229C527.122 32.4267 526.943 31.8827 526.693 31.376C526.447 30.864 526.122 30.4187 525.717 30.04C525.311 29.656 524.826 29.3547 524.261 29.136C523.701 28.9173 523.055 28.808 522.325 28.808C521.492 28.808 520.743 28.9547 520.077 29.248C519.41 29.5413 518.842 29.9627 518.373 30.512C517.909 31.0613 517.551 31.7307 517.301 32.52C517.055 33.304 516.933 34.1893 516.933 35.176ZM539.792 25.88C540.992 25.88 542.058 26.016 542.992 26.288C543.93 26.56 544.72 26.9493 545.36 27.456C546.005 27.9573 546.496 28.568 546.832 29.288C547.168 30.0027 547.336 30.8053 547.336 31.696H544.168C544.168 31.2427 544.072 30.832 543.88 30.464C543.693 30.0907 543.413 29.7733 543.04 29.512C542.672 29.2453 542.216 29.04 541.672 28.896C541.128 28.752 540.501 28.68 539.792 28.68C539.152 28.68 538.568 28.7387 538.04 28.856C537.517 28.9733 537.066 29.1413 536.688 29.36C536.309 29.5733 536.016 29.832 535.808 30.136C535.6 30.4347 535.496 30.768 535.496 31.136C535.496 31.4133 535.554 31.6587 535.672 31.872C535.789 32.08 535.949 32.2613 536.152 32.416C536.354 32.5707 536.592 32.704 536.864 32.816C537.136 32.9227 537.426 33.016 537.736 33.096C538.05 33.176 538.376 33.2453 538.712 33.304C539.048 33.3573 539.378 33.4107 539.704 33.464L540.888 33.648C541.378 33.7227 541.893 33.8107 542.432 33.912C542.976 34.008 543.509 34.1387 544.032 34.304C544.56 34.464 545.061 34.6693 545.536 34.92C546.016 35.1653 546.437 35.4747 546.8 35.848C547.162 36.2213 547.45 36.6693 547.664 37.192C547.877 37.7093 547.984 38.3253 547.984 39.04C547.984 39.9093 547.813 40.6827 547.472 41.36C547.13 42.032 546.626 42.6 545.96 43.064C545.293 43.528 544.469 43.88 543.488 44.12C542.506 44.36 541.373 44.48 540.088 44.48C538.749 44.48 537.576 44.3493 536.568 44.088C535.56 43.8267 534.72 43.4427 534.048 42.936C533.376 42.4293 532.869 41.808 532.528 41.072C532.192 40.3307 532.024 39.48 532.024 38.52H535.184C535.184 39.5333 535.584 40.3147 536.384 40.864C537.184 41.408 538.416 41.68 540.08 41.68C540.832 41.68 541.501 41.624 542.088 41.512C542.674 41.4 543.17 41.2347 543.576 41.016C543.981 40.7973 544.29 40.528 544.504 40.208C544.717 39.888 544.824 39.5227 544.824 39.112C544.824 38.792 544.762 38.512 544.64 38.272C544.517 38.0267 544.346 37.816 544.128 37.64C543.909 37.4587 543.65 37.304 543.352 37.176C543.058 37.0427 542.738 36.928 542.392 36.832C542.045 36.736 541.682 36.6533 541.304 36.584C540.93 36.5093 540.552 36.44 540.168 36.376L538.992 36.176C538.544 36.1013 538.069 36.016 537.568 35.92C537.066 35.8187 536.568 35.6933 536.072 35.544C535.581 35.3893 535.109 35.1973 534.656 34.968C534.208 34.7333 533.81 34.4453 533.464 34.104C533.122 33.7627 532.848 33.3547 532.64 32.88C532.437 32.4053 532.336 31.848 532.336 31.208C532.336 30.3973 532.506 29.664 532.848 29.008C533.194 28.352 533.688 27.792 534.328 27.328C534.973 26.864 535.754 26.5067 536.672 26.256C537.594 26.0053 538.634 25.88 539.792 25.88Z" fill="#1A212B"/>
<rect y="83" width="255" height="56" rx="16" fill="white"/>
<path fill-rule="evenodd" clip-rule="evenodd" d="M24 121C29.5228 121 34 116.523 34 111C34 105.477 29.5228 101 24 101C18.4772 101 14 105.477 14 111C14 116.523 18.4772 121 24 121ZM24.4697 107.47C24.7626 107.177 25.2374 107.177 25.5303 107.47L28.5303 110.47C28.8232 110.763 28.8232 111.237 28.5303 111.53L25.5303 114.53C25.2374 114.823 24.7626 114.823 24.4697 114.53C24.1768 114.237 24.1768 113.763 24.4697 113.47L26.1893 111.75H20C19.5858 111.75 19.25 111.414 19.25 111C19.25 110.586 19.5858 110.25 20 110.25H26.1893L24.4697 108.53C24.1768 108.237 24.1768 107.763 24.4697 107.47Z" fill="#1C274C"/>
<path d="M49.36 97.12H52.72V110.4C52.72 111.504 52.8613 112.488 53.144 113.352C53.432 114.216 53.848 114.947 54.392 115.544C54.936 116.136 55.6053 116.587 56.4 116.896C57.1947 117.205 58.1013 117.36 59.12 117.36C60.1387 117.36 61.0453 117.205 61.84 116.896C62.6347 116.587 63.304 116.136 63.848 115.544C64.392 114.947 64.8053 114.216 65.088 113.352C65.376 112.488 65.52 111.504 65.52 110.4V97.12H68.88V110.4C68.88 111.424 68.776 112.384 68.568 113.28C68.36 114.176 68.0587 114.997 67.664 115.744C67.2747 116.491 66.7947 117.157 66.224 117.744C65.6587 118.331 65.0133 118.827 64.288 119.232C63.568 119.637 62.7733 119.947 61.904 120.16C61.04 120.373 60.112 120.48 59.12 120.48C58.128 120.48 57.1973 120.373 56.328 120.16C55.464 119.947 54.6693 119.637 53.944 119.232C53.224 118.827 52.5787 118.331 52.008 117.744C51.4427 117.157 50.9627 116.491 50.568 115.744C50.1787 114.997 49.88 114.176 49.672 113.28C49.464 112.384 49.36 111.424 49.36 110.4V97.12ZM74.85 100.32H71.45V96.32H74.85V100.32ZM74.77 120H71.53V102.36H74.77V120ZM77.4305 126.064L85.0385 96.32H88.1985L80.5905 126.064H77.4305ZM90.9225 97.12H94.2825V110.4C94.2825 111.504 94.4238 112.488 94.7065 113.352C94.9945 114.216 95.4105 114.947 95.9545 115.544C96.4985 116.136 97.1678 116.587 97.9625 116.896C98.7572 117.205 99.6638 117.36 100.683 117.36C101.701 117.36 102.608 117.205 103.403 116.896C104.197 116.587 104.867 116.136 105.411 115.544C105.955 114.947 106.368 114.216 106.651 113.352C106.939 112.488 107.083 111.504 107.083 110.4V97.12H110.443V110.4C110.443 111.424 110.339 112.384 110.131 113.28C109.923 114.176 109.621 114.997 109.227 115.744C108.837 116.491 108.357 117.157 107.787 117.744C107.221 118.331 106.576 118.827 105.851 119.232C105.131 119.637 104.336 119.947 103.467 120.16C102.603 120.373 101.675 120.48 100.683 120.48C99.6905 120.48 98.7598 120.373 97.8905 120.16C97.0265 119.947 96.2318 119.637 95.5065 119.232C94.7865 118.827 94.1412 118.331 93.5705 117.744C93.0052 117.157 92.5252 116.491 92.1305 115.744C91.7412 114.997 91.4425 114.176 91.2345 113.28C91.0265 112.384 90.9225 111.424 90.9225 110.4V97.12ZM124.965 108.344L133.533 120H129.501L122.669 110.632L116.029 120H112.253L120.677 108.392L112.733 97.12H116.701L122.965 106.08L129.053 97.12H132.829L124.965 108.344ZM142.516 97.12H150.044C151.223 97.12 152.33 97.2427 153.364 97.488C154.404 97.7333 155.359 98.0907 156.228 98.56C157.103 99.024 157.884 99.592 158.572 100.264C159.26 100.931 159.842 101.688 160.316 102.536C160.796 103.384 161.162 104.315 161.412 105.328C161.668 106.336 161.796 107.413 161.796 108.56C161.796 109.707 161.668 110.787 161.412 111.8C161.162 112.808 160.796 113.736 160.316 114.584C159.842 115.427 159.26 116.184 158.572 116.856C157.884 117.528 157.103 118.096 156.228 118.56C155.359 119.024 154.404 119.381 153.364 119.632C152.33 119.877 151.223 120 150.044 120H142.516V97.12ZM150.052 116.88C151.359 116.88 152.53 116.691 153.564 116.312C154.604 115.928 155.484 115.379 156.204 114.664C156.924 113.949 157.476 113.077 157.86 112.048C158.244 111.019 158.436 109.856 158.436 108.56C158.436 107.264 158.244 106.101 157.86 105.072C157.476 104.043 156.924 103.171 156.204 102.456C155.484 101.741 154.604 101.195 153.564 100.816C152.53 100.432 151.359 100.24 150.052 100.24H145.796V116.88H150.052ZM180.461 114.152C180.231 115.139 179.874 116.024 179.389 116.808C178.903 117.592 178.311 118.256 177.613 118.8C176.919 119.344 176.13 119.76 175.245 120.048C174.359 120.336 173.399 120.48 172.365 120.48C171.501 120.48 170.685 120.379 169.917 120.176C169.154 119.973 168.45 119.683 167.805 119.304C167.165 118.92 166.589 118.456 166.077 117.912C165.57 117.363 165.138 116.744 164.781 116.056C164.429 115.363 164.159 114.605 163.973 113.784C163.786 112.957 163.693 112.08 163.693 111.152C163.693 110.224 163.786 109.352 163.973 108.536C164.159 107.72 164.426 106.968 164.773 106.28C165.125 105.592 165.551 104.976 166.053 104.432C166.554 103.888 167.122 103.427 167.757 103.048C168.391 102.669 169.087 102.381 169.845 102.184C170.602 101.981 171.407 101.88 172.261 101.88C173.525 101.88 174.666 102.099 175.685 102.536C176.703 102.968 177.573 103.584 178.293 104.384C179.013 105.184 179.567 106.152 179.957 107.288C180.346 108.424 180.541 109.696 180.541 111.104C180.541 111.307 180.535 111.507 180.524 111.704C180.519 111.901 180.506 112.12 180.485 112.36H166.997C167.093 113.165 167.285 113.891 167.573 114.536C167.866 115.176 168.245 115.72 168.709 116.168C169.178 116.616 169.727 116.96 170.357 117.2C170.986 117.435 171.682 117.552 172.445 117.552C173.618 117.552 174.599 117.269 175.389 116.704C176.178 116.133 176.789 115.283 177.221 114.152H180.461ZM177.189 109.56C177.082 108.792 176.895 108.115 176.629 107.528C176.362 106.936 176.021 106.44 175.605 106.04C175.189 105.635 174.701 105.328 174.141 105.12C173.586 104.912 172.965 104.808 172.277 104.808C171.573 104.808 170.927 104.917 170.341 105.136C169.754 105.349 169.237 105.661 168.789 106.072C168.346 106.477 167.978 106.976 167.685 107.568C167.391 108.155 167.183 108.819 167.061 109.56H177.189ZM189.854 101.88C191.054 101.88 192.121 102.016 193.054 102.288C193.993 102.56 194.782 102.949 195.422 103.456C196.068 103.957 196.558 104.568 196.894 105.288C197.23 106.003 197.398 106.805 197.398 107.696H194.23C194.23 107.243 194.134 106.832 193.942 106.464C193.756 106.091 193.476 105.773 193.102 105.512C192.734 105.245 192.278 105.04 191.734 104.896C191.19 104.752 190.564 104.68 189.854 104.68C189.214 104.68 188.63 104.739 188.102 104.856C187.58 104.973 187.129 105.141 186.75 105.36C186.372 105.573 186.078 105.832 185.87 106.136C185.662 106.435 185.558 106.768 185.558 107.136C185.558 107.413 185.617 107.659 185.734 107.872C185.852 108.08 186.012 108.261 186.214 108.416C186.417 108.571 186.654 108.704 186.926 108.816C187.198 108.923 187.489 109.016 187.798 109.096C188.113 109.176 188.438 109.245 188.774 109.304C189.11 109.357 189.441 109.411 189.766 109.464L190.95 109.648C191.441 109.723 191.956 109.811 192.494 109.912C193.038 110.008 193.572 110.139 194.094 110.304C194.622 110.464 195.124 110.669 195.598 110.92C196.078 111.165 196.5 111.475 196.862 111.848C197.225 112.221 197.513 112.669 197.726 113.192C197.94 113.709 198.046 114.325 198.046 115.04C198.046 115.909 197.876 116.683 197.534 117.36C197.193 118.032 196.689 118.6 196.022 119.064C195.356 119.528 194.532 119.88 193.55 120.12C192.569 120.36 191.436 120.48 190.15 120.48C188.812 120.48 187.638 120.349 186.63 120.088C185.622 119.827 184.782 119.443 184.11 118.936C183.438 118.429 182.932 117.808 182.59 117.072C182.254 116.331 182.086 115.48 182.086 114.52H185.246C185.246 115.533 185.646 116.315 186.446 116.864C187.246 117.408 188.478 117.68 190.142 117.68C190.894 117.68 191.564 117.624 192.15 117.512C192.737 117.4 193.233 117.235 193.638 117.016C194.044 116.797 194.353 116.528 194.566 116.208C194.78 115.888 194.886 115.523 194.886 115.112C194.886 114.792 194.825 114.512 194.702 114.272C194.58 114.027 194.409 113.816 194.19 113.64C193.972 113.459 193.713 113.304 193.414 113.176C193.121 113.043 192.801 112.928 192.454 112.832C192.108 112.736 191.745 112.653 191.366 112.584C190.993 112.509 190.614 112.44 190.23 112.376L189.054 112.176C188.606 112.101 188.132 112.016 187.63 111.92C187.129 111.819 186.63 111.693 186.134 111.544C185.644 111.389 185.172 111.197 184.718 110.968C184.27 110.733 183.873 110.445 183.526 110.104C183.185 109.763 182.91 109.355 182.702 108.88C182.5 108.405 182.398 107.848 182.398 107.208C182.398 106.397 182.569 105.664 182.91 105.008C183.257 104.352 183.75 103.792 184.39 103.328C185.036 102.864 185.817 102.507 186.734 102.256C187.657 102.005 188.697 101.88 189.854 101.88ZM203.381 100.32H199.981V96.32H203.381V100.32ZM203.301 120H200.061V102.36H203.301V120ZM222.722 102.36V116.8C222.722 117.771 222.628 118.685 222.442 119.544C222.255 120.403 221.986 121.192 221.634 121.912C221.287 122.632 220.86 123.277 220.354 123.848C219.847 124.424 219.274 124.912 218.634 125.312C217.999 125.712 217.3 126.016 216.538 126.224C215.78 126.437 214.972 126.544 214.114 126.544C213.378 126.544 212.674 126.467 212.002 126.312C211.33 126.163 210.703 125.947 210.122 125.664C209.546 125.381 209.02 125.04 208.546 124.64C208.076 124.245 207.674 123.803 207.338 123.312C207.002 122.821 206.743 122.288 206.562 121.712C206.38 121.141 206.29 120.544 206.29 119.92H209.53C209.53 120.277 209.583 120.619 209.69 120.944C209.802 121.269 209.956 121.573 210.154 121.856C210.356 122.144 210.596 122.403 210.874 122.632C211.156 122.867 211.468 123.064 211.81 123.224C212.151 123.389 212.516 123.517 212.906 123.608C213.3 123.699 213.711 123.744 214.138 123.744C214.948 123.744 215.682 123.579 216.338 123.248C216.999 122.917 217.562 122.448 218.026 121.84C218.49 121.232 218.847 120.501 219.098 119.648C219.354 118.795 219.482 117.845 219.482 116.8V114.016C219.252 114.88 218.93 115.661 218.514 116.36C218.103 117.059 217.612 117.656 217.042 118.152C216.476 118.643 215.839 119.021 215.13 119.288C214.426 119.549 213.666 119.68 212.85 119.68C212.14 119.68 211.466 119.581 210.826 119.384C210.186 119.181 209.591 118.896 209.042 118.528C208.498 118.155 208.004 117.704 207.562 117.176C207.124 116.643 206.751 116.048 206.442 115.392C206.132 114.731 205.892 114.013 205.722 113.24C205.556 112.461 205.474 111.64 205.474 110.776C205.474 109.912 205.556 109.093 205.722 108.32C205.892 107.541 206.132 106.824 206.442 106.168C206.751 105.507 207.124 104.912 207.562 104.384C208.004 103.856 208.498 103.408 209.042 103.04C209.591 102.667 210.186 102.381 210.826 102.184C211.466 101.981 212.14 101.88 212.85 101.88C213.666 101.88 214.426 102.013 215.13 102.28C215.839 102.541 216.476 102.92 217.042 103.416C217.612 103.907 218.103 104.501 218.514 105.2C218.93 105.899 219.252 106.68 219.482 107.544V102.36H222.722ZM219.482 110.776C219.482 109.832 219.356 108.987 219.106 108.24C218.855 107.488 218.492 106.853 218.018 106.336C217.548 105.813 216.97 105.416 216.282 105.144C215.599 104.867 214.823 104.728 213.954 104.728C213.111 104.728 212.364 104.859 211.714 105.12C211.063 105.381 210.514 105.768 210.066 106.28C209.623 106.792 209.287 107.424 209.058 108.176C208.828 108.928 208.714 109.795 208.714 110.776C208.714 111.757 208.828 112.624 209.058 113.376C209.292 114.128 209.631 114.76 210.074 115.272C210.516 115.784 211.063 116.173 211.714 116.44C212.37 116.701 213.116 116.832 213.954 116.832C214.823 116.832 215.599 116.693 216.282 116.416C216.97 116.139 217.548 115.741 218.018 115.224C218.492 114.701 218.855 114.067 219.106 113.32C219.356 112.568 219.482 111.72 219.482 110.776ZM228.52 120H225.28V102.36H228.52V107.456C228.733 106.587 229.04 105.808 229.44 105.12C229.84 104.432 230.32 103.848 230.88 103.368C231.44 102.888 232.072 102.52 232.776 102.264C233.485 102.008 234.251 101.88 235.072 101.88C236.075 101.88 236.973 102.069 237.768 102.448C238.563 102.827 239.235 103.373 239.784 104.088C240.339 104.797 240.76 105.664 241.048 106.688C241.341 107.707 241.488 108.856 241.488 110.136V120H238.248V110.136C238.248 108.365 237.872 107.035 237.12 106.144C236.368 105.253 235.235 104.808 233.72 104.808C232.904 104.808 232.173 104.936 231.528 105.192C230.888 105.443 230.344 105.811 229.896 106.296C229.453 106.776 229.112 107.368 228.872 108.072C228.637 108.771 228.52 109.565 228.52 110.456V120Z" fill="#1A212B"/>
<rect x="269" y="83" width="328" height="56" rx="16" fill="white"/>
<path fill-rule="evenodd" clip-rule="evenodd" d="M293 121C298.523 121 303 116.523 303 111C303 105.477 298.523 101 293 101C287.477 101 283 105.477 283 111C283 116.523 287.477 121 293 121ZM293.47 107.47C293.763 107.177 294.237 107.177 294.53 107.47L297.53 110.47C297.823 110.763 297.823 111.237 297.53 111.53L294.53 114.53C294.237 114.823 293.763 114.823 293.47 114.53C293.177 114.237 293.177 113.763 293.47 113.47L295.189 111.75H289C288.586 111.75 288.25 111.414 288.25 111C288.25 110.586 288.586 110.25 289 110.25H295.189L293.47 108.53C293.177 108.237 293.177 107.763 293.47 107.47Z" fill="#1C274C"/>
<path d="M317.28 120L325.808 97.12H330.848L339.264 120H335.696L333.608 114.264H322.888L320.768 120H317.28ZM332.496 111.224L328.288 99.656L324.008 111.224H332.496ZM344.051 107.792C344.281 106.885 344.601 106.069 345.011 105.344C345.422 104.613 345.907 103.992 346.467 103.48C347.027 102.968 347.654 102.573 348.347 102.296C349.046 102.019 349.795 101.88 350.595 101.88C351.321 101.88 352.009 101.984 352.659 102.192C353.31 102.4 353.91 102.699 354.459 103.088C355.014 103.477 355.513 103.949 355.955 104.504C356.403 105.053 356.782 105.672 357.091 106.36C357.401 107.048 357.638 107.797 357.803 108.608C357.974 109.419 358.059 110.275 358.059 111.176C358.059 112.077 357.974 112.933 357.803 113.744C357.638 114.555 357.401 115.307 357.091 116C356.782 116.688 356.403 117.309 355.955 117.864C355.513 118.413 355.014 118.883 354.459 119.272C353.91 119.661 353.31 119.96 352.659 120.168C352.009 120.376 351.321 120.48 350.595 120.48C349.795 120.48 349.046 120.341 348.347 120.064C347.654 119.787 347.027 119.392 346.467 118.88C345.907 118.368 345.422 117.747 345.011 117.016C344.601 116.285 344.281 115.467 344.051 114.56V126.04H340.811V102.36H344.051V107.792ZM344.051 111.176C344.051 112.184 344.174 113.088 344.419 113.888C344.67 114.683 345.03 115.357 345.499 115.912C345.969 116.467 346.539 116.893 347.211 117.192C347.883 117.485 348.643 117.632 349.491 117.632C350.355 117.632 351.118 117.493 351.779 117.216C352.446 116.933 353.003 116.52 353.451 115.976C353.899 115.427 354.238 114.752 354.467 113.952C354.702 113.147 354.819 112.221 354.819 111.176C354.819 110.131 354.702 109.208 354.467 108.408C354.238 107.603 353.899 106.928 353.451 106.384C353.003 105.84 352.446 105.429 351.779 105.152C351.118 104.869 350.355 104.728 349.491 104.728C348.643 104.728 347.883 104.875 347.211 105.168C346.539 105.461 345.969 105.885 345.499 106.44C345.03 106.995 344.67 107.672 344.419 108.472C344.174 109.267 344.051 110.168 344.051 111.176ZM363.457 107.792C363.687 106.885 364.007 106.069 364.418 105.344C364.828 104.613 365.314 103.992 365.874 103.48C366.434 102.968 367.06 102.573 367.753 102.296C368.452 102.019 369.202 101.88 370.002 101.88C370.727 101.88 371.415 101.984 372.066 102.192C372.716 102.4 373.316 102.699 373.866 103.088C374.42 103.477 374.919 103.949 375.362 104.504C375.81 105.053 376.188 105.672 376.498 106.36C376.807 107.048 377.044 107.797 377.21 108.608C377.38 109.419 377.466 110.275 377.466 111.176C377.466 112.077 377.38 112.933 377.21 113.744C377.044 114.555 376.807 115.307 376.498 116C376.188 116.688 375.81 117.309 375.362 117.864C374.919 118.413 374.42 118.883 373.866 119.272C373.316 119.661 372.716 119.96 372.066 120.168C371.415 120.376 370.727 120.48 370.002 120.48C369.202 120.48 368.452 120.341 367.753 120.064C367.06 119.787 366.434 119.392 365.874 118.88C365.314 118.368 364.828 117.747 364.418 117.016C364.007 116.285 363.687 115.467 363.457 114.56V126.04H360.218V102.36H363.457V107.792ZM363.457 111.176C363.457 112.184 363.58 113.088 363.826 113.888C364.076 114.683 364.436 115.357 364.906 115.912C365.375 116.467 365.946 116.893 366.618 117.192C367.29 117.485 368.05 117.632 368.898 117.632C369.762 117.632 370.524 117.493 371.186 117.216C371.852 116.933 372.41 116.52 372.858 115.976C373.306 115.427 373.644 114.752 373.874 113.952C374.108 113.147 374.226 112.221 374.226 111.176C374.226 110.131 374.108 109.208 373.874 108.408C373.644 107.603 373.306 106.928 372.858 106.384C372.41 105.84 371.852 105.429 371.186 105.152C370.524 104.869 369.762 104.728 368.898 104.728C368.05 104.728 367.29 104.875 366.618 105.168C365.946 105.461 365.375 105.885 364.906 106.44C364.436 106.995 364.076 107.672 363.826 108.472C363.58 109.267 363.457 110.168 363.457 111.176ZM386.891 97.12H394.419C395.598 97.12 396.705 97.2427 397.739 97.488C398.779 97.7333 399.734 98.0907 400.603 98.56C401.478 99.024 402.259 99.592 402.947 100.264C403.635 100.931 404.217 101.688 404.691 102.536C405.171 103.384 405.537 104.315 405.787 105.328C406.043 106.336 406.171 107.413 406.171 108.56C406.171 109.707 406.043 110.787 405.787 111.8C405.537 112.808 405.171 113.736 404.691 114.584C404.217 115.427 403.635 116.184 402.947 116.856C402.259 117.528 401.478 118.096 400.603 118.56C399.734 119.024 398.779 119.381 397.739 119.632C396.705 119.877 395.598 120 394.419 120H386.891V97.12ZM394.427 116.88C395.734 116.88 396.905 116.691 397.939 116.312C398.979 115.928 399.859 115.379 400.579 114.664C401.299 113.949 401.851 113.077 402.235 112.048C402.619 111.019 402.811 109.856 402.811 108.56C402.811 107.264 402.619 106.101 402.235 105.072C401.851 104.043 401.299 103.171 400.579 102.456C399.859 101.741 398.979 101.195 397.939 100.816C396.905 100.432 395.734 100.24 394.427 100.24H390.171V116.88H394.427ZM424.836 114.152C424.606 115.139 424.249 116.024 423.764 116.808C423.278 117.592 422.686 118.256 421.988 118.8C421.294 119.344 420.505 119.76 419.62 120.048C418.734 120.336 417.774 120.48 416.74 120.48C415.876 120.48 415.06 120.379 414.292 120.176C413.529 119.973 412.825 119.683 412.18 119.304C411.54 118.92 410.964 118.456 410.452 117.912C409.945 117.363 409.513 116.744 409.156 116.056C408.804 115.363 408.534 114.605 408.348 113.784C408.161 112.957 408.068 112.08 408.068 111.152C408.068 110.224 408.161 109.352 408.348 108.536C408.534 107.72 408.801 106.968 409.148 106.28C409.5 105.592 409.926 104.976 410.428 104.432C410.929 103.888 411.497 103.427 412.132 103.048C412.766 102.669 413.462 102.381 414.22 102.184C414.977 101.981 415.782 101.88 416.636 101.88C417.9 101.88 419.041 102.099 420.06 102.536C421.078 102.968 421.948 103.584 422.668 104.384C423.388 105.184 423.942 106.152 424.332 107.288C424.721 108.424 424.916 109.696 424.916 111.104C424.916 111.307 424.91 111.507 424.899 111.704C424.894 111.901 424.881 112.12 424.86 112.36H411.372C411.468 113.165 411.66 113.891 411.948 114.536C412.241 115.176 412.62 115.72 413.084 116.168C413.553 116.616 414.102 116.96 414.732 117.2C415.361 117.435 416.057 117.552 416.82 117.552C417.993 117.552 418.974 117.269 419.764 116.704C420.553 116.133 421.164 115.283 421.596 114.152H424.836ZM421.564 109.56C421.457 108.792 421.27 108.115 421.004 107.528C420.737 106.936 420.396 106.44 419.98 106.04C419.564 105.635 419.076 105.328 418.516 105.12C417.961 104.912 417.34 104.808 416.652 104.808C415.948 104.808 415.302 104.917 414.716 105.136C414.129 105.349 413.612 105.661 413.164 106.072C412.721 106.477 412.353 106.976 412.06 107.568C411.766 108.155 411.558 108.819 411.436 109.56H421.564ZM442.666 102.36L436.338 120H431.298L425.034 102.36H428.394L433.858 117.992L439.386 102.36H442.666ZM459.586 114.152C459.356 115.139 458.999 116.024 458.514 116.808C458.028 117.592 457.436 118.256 456.738 118.8C456.044 119.344 455.255 119.76 454.37 120.048C453.484 120.336 452.524 120.48 451.49 120.48C450.626 120.48 449.81 120.379 449.042 120.176C448.279 119.973 447.575 119.683 446.93 119.304C446.29 118.92 445.714 118.456 445.202 117.912C444.695 117.363 444.263 116.744 443.906 116.056C443.554 115.363 443.284 114.605 443.098 113.784C442.911 112.957 442.818 112.08 442.818 111.152C442.818 110.224 442.911 109.352 443.098 108.536C443.284 107.72 443.551 106.968 443.898 106.28C444.25 105.592 444.676 104.976 445.178 104.432C445.679 103.888 446.247 103.427 446.882 103.048C447.516 102.669 448.212 102.381 448.97 102.184C449.727 101.981 450.532 101.88 451.386 101.88C452.65 101.88 453.791 102.099 454.81 102.536C455.828 102.968 456.698 103.584 457.418 104.384C458.138 105.184 458.692 106.152 459.082 107.288C459.471 108.424 459.666 109.696 459.666 111.104C459.666 111.307 459.66 111.507 459.649 111.704C459.644 111.901 459.631 112.12 459.61 112.36H446.122C446.218 113.165 446.41 113.891 446.698 114.536C446.991 115.176 447.37 115.72 447.834 116.168C448.303 116.616 448.852 116.96 449.482 117.2C450.111 117.435 450.807 117.552 451.57 117.552C452.743 117.552 453.724 117.269 454.514 116.704C455.303 116.133 455.914 115.283 456.346 114.152H459.586ZM456.314 109.56C456.207 108.792 456.02 108.115 455.754 107.528C455.487 106.936 455.146 106.44 454.73 106.04C454.314 105.635 453.826 105.328 453.266 105.12C452.711 104.912 452.09 104.808 451.402 104.808C450.698 104.808 450.052 104.917 449.466 105.136C448.879 105.349 448.362 105.661 447.914 106.072C447.471 106.477 447.103 106.976 446.81 107.568C446.516 108.155 446.308 108.819 446.186 109.56H456.314ZM465.051 120H461.811V96.32H465.051V120ZM467.224 111.176C467.224 110.248 467.317 109.373 467.504 108.552C467.69 107.731 467.96 106.976 468.312 106.288C468.664 105.6 469.093 104.984 469.6 104.44C470.106 103.891 470.677 103.427 471.312 103.048C471.952 102.669 472.653 102.381 473.416 102.184C474.178 101.981 474.989 101.88 475.848 101.88C476.712 101.88 477.522 101.981 478.28 102.184C479.042 102.381 479.741 102.669 480.376 103.048C481.016 103.427 481.589 103.891 482.096 104.44C482.602 104.984 483.032 105.6 483.384 106.288C483.736 106.976 484.005 107.731 484.192 108.552C484.378 109.373 484.472 110.248 484.472 111.176C484.472 112.104 484.378 112.979 484.192 113.8C484.005 114.621 483.736 115.379 483.384 116.072C483.032 116.76 482.602 117.376 482.096 117.92C481.589 118.464 481.016 118.928 480.376 119.312C479.741 119.691 479.042 119.979 478.28 120.176C477.522 120.379 476.712 120.48 475.848 120.48C474.989 120.48 474.178 120.379 473.416 120.176C472.653 119.979 471.952 119.691 471.312 119.312C470.677 118.928 470.106 118.464 469.6 117.92C469.093 117.376 468.664 116.76 468.312 116.072C467.96 115.379 467.69 114.621 467.504 113.8C467.317 112.979 467.224 112.104 467.224 111.176ZM470.464 111.176C470.464 112.163 470.586 113.051 470.832 113.84C471.082 114.624 471.44 115.293 471.904 115.848C472.373 116.397 472.941 116.819 473.608 117.112C474.274 117.405 475.024 117.552 475.856 117.552C476.688 117.552 477.434 117.405 478.096 117.112C478.762 116.819 479.328 116.397 479.792 115.848C480.256 115.293 480.61 114.624 480.856 113.84C481.106 113.051 481.232 112.163 481.232 111.176C481.232 110.189 481.106 109.304 480.856 108.52C480.61 107.731 480.256 107.061 479.792 106.512C479.328 105.963 478.762 105.541 478.096 105.248C477.434 104.955 476.688 104.808 475.856 104.808C475.024 104.808 474.274 104.955 473.608 105.248C472.941 105.541 472.373 105.963 471.904 106.512C471.44 107.061 471.082 107.731 470.832 108.52C470.586 109.304 470.464 110.189 470.464 111.176ZM489.864 107.792C490.093 106.885 490.413 106.069 490.824 105.344C491.234 104.613 491.72 103.992 492.28 103.48C492.84 102.968 493.466 102.573 494.16 102.296C494.858 102.019 495.608 101.88 496.408 101.88C497.133 101.88 497.821 101.984 498.472 102.192C499.122 102.4 499.722 102.699 500.272 103.088C500.826 103.477 501.325 103.949 501.768 104.504C502.216 105.053 502.594 105.672 502.904 106.36C503.213 107.048 503.45 107.797 503.616 108.608C503.786 109.419 503.872 110.275 503.872 111.176C503.872 112.077 503.786 112.933 503.616 113.744C503.45 114.555 503.213 115.307 502.904 116C502.594 116.688 502.216 117.309 501.768 117.864C501.325 118.413 500.826 118.883 500.272 119.272C499.722 119.661 499.122 119.96 498.472 120.168C497.821 120.376 497.133 120.48 496.408 120.48C495.608 120.48 494.858 120.341 494.16 120.064C493.466 119.787 492.84 119.392 492.28 118.88C491.72 118.368 491.234 117.747 490.824 117.016C490.413 116.285 490.093 115.467 489.864 114.56V126.04H486.624V102.36H489.864V107.792ZM489.864 111.176C489.864 112.184 489.986 113.088 490.232 113.888C490.482 114.683 490.842 115.357 491.312 115.912C491.781 116.467 492.352 116.893 493.024 117.192C493.696 117.485 494.456 117.632 495.304 117.632C496.168 117.632 496.93 117.493 497.592 117.216C498.258 116.933 498.816 116.52 499.264 115.976C499.712 115.427 500.05 114.752 500.28 113.952C500.514 113.147 500.632 112.221 500.632 111.176C500.632 110.131 500.514 109.208 500.28 108.408C500.05 107.603 499.712 106.928 499.264 106.384C498.816 105.84 498.258 105.429 497.592 105.152C496.93 104.869 496.168 104.728 495.304 104.728C494.456 104.728 493.696 104.875 493.024 105.168C492.352 105.461 491.781 105.885 491.312 106.44C490.842 106.995 490.482 107.672 490.232 108.472C489.986 109.267 489.864 110.168 489.864 111.176ZM509.27 120H506.03V102.36H509.27V107.272C509.478 106.429 509.766 105.675 510.134 105.008C510.507 104.341 510.95 103.776 511.462 103.312C511.974 102.848 512.55 102.493 513.19 102.248C513.83 102.003 514.523 101.88 515.27 101.88C516.059 101.88 516.777 102.019 517.422 102.296C518.073 102.568 518.643 102.965 519.134 103.488C519.63 104.011 520.038 104.651 520.358 105.408C520.683 106.16 520.915 107.013 521.054 107.968C521.225 107.024 521.491 106.176 521.854 105.424C522.217 104.672 522.659 104.035 523.182 103.512C523.71 102.984 524.313 102.581 524.99 102.304C525.667 102.021 526.403 101.88 527.198 101.88C528.126 101.88 528.955 102.069 529.686 102.448C530.422 102.827 531.043 103.373 531.55 104.088C532.062 104.797 532.451 105.664 532.718 106.688C532.99 107.707 533.126 108.856 533.126 110.136V120H529.886V110.136C529.886 108.365 529.55 107.035 528.878 106.144C528.211 105.253 527.201 104.808 525.846 104.808C525.121 104.808 524.47 104.936 523.894 105.192C523.318 105.443 522.83 105.811 522.43 106.296C522.03 106.776 521.723 107.368 521.51 108.072C521.302 108.771 521.198 109.565 521.198 110.456V120H517.958V110.136C517.958 108.365 517.622 107.035 516.95 106.144C516.283 105.253 515.273 104.808 513.918 104.808C513.193 104.808 512.542 104.936 511.966 105.192C511.39 105.443 510.902 105.811 510.502 106.296C510.102 106.776 509.795 107.368 509.582 108.072C509.374 108.771 509.27 109.565 509.27 110.456V120ZM551.961 114.152C551.731 115.139 551.374 116.024 550.889 116.808C550.403 117.592 549.811 118.256 549.113 118.8C548.419 119.344 547.63 119.76 546.745 120.048C545.859 120.336 544.899 120.48 543.865 120.48C543.001 120.48 542.185 120.379 541.417 120.176C540.654 119.973 539.95 119.683 539.305 119.304C538.665 118.92 538.089 118.456 537.577 117.912C537.07 117.363 536.638 116.744 536.281 116.056C535.929 115.363 535.659 114.605 535.473 113.784C535.286 112.957 535.193 112.08 535.193 111.152C535.193 110.224 535.286 109.352 535.473 108.536C535.659 107.72 535.926 106.968 536.273 106.28C536.625 105.592 537.051 104.976 537.553 104.432C538.054 103.888 538.622 103.427 539.257 103.048C539.891 102.669 540.587 102.381 541.345 102.184C542.102 101.981 542.907 101.88 543.761 101.88C545.025 101.88 546.166 102.099 547.185 102.536C548.203 102.968 549.073 103.584 549.793 104.384C550.513 105.184 551.067 106.152 551.457 107.288C551.846 108.424 552.041 109.696 552.041 111.104C552.041 111.307 552.035 111.507 552.024 111.704C552.019 111.901 552.006 112.12 551.985 112.36H538.497C538.593 113.165 538.785 113.891 539.073 114.536C539.366 115.176 539.745 115.72 540.209 116.168C540.678 116.616 541.227 116.96 541.857 117.2C542.486 117.435 543.182 117.552 543.945 117.552C545.118 117.552 546.099 117.269 546.889 116.704C547.678 116.133 548.289 115.283 548.721 114.152H551.961ZM548.689 109.56C548.582 108.792 548.395 108.115 548.129 107.528C547.862 106.936 547.521 106.44 547.105 106.04C546.689 105.635 546.201 105.328 545.641 105.12C545.086 104.912 544.465 104.808 543.777 104.808C543.073 104.808 542.427 104.917 541.841 105.136C541.254 105.349 540.737 105.661 540.289 106.072C539.846 106.477 539.478 106.976 539.185 107.568C538.891 108.155 538.683 108.819 538.561 109.56H548.689ZM557.426 120H554.186V102.36H557.426V107.456C557.64 106.587 557.946 105.808 558.346 105.12C558.746 104.432 559.226 103.848 559.786 103.368C560.346 102.888 560.978 102.52 561.682 102.264C562.392 102.008 563.157 101.88 563.978 101.88C564.981 101.88 565.88 102.069 566.674 102.448C567.469 102.827 568.141 103.373 568.69 104.088C569.245 104.797 569.666 105.664 569.954 106.688C570.248 107.707 570.394 108.856 570.394 110.136V120H567.154V110.136C567.154 108.365 566.778 107.035 566.026 106.144C565.274 105.253 564.141 104.808 562.626 104.808C561.81 104.808 561.08 104.936 560.434 105.192C559.794 105.443 559.25 105.811 558.802 106.296C558.36 106.776 558.018 107.368 557.778 108.072C557.544 108.771 557.426 109.565 557.426 110.456V120ZM583.464 119.864C582.114 120.269 580.898 120.472 579.816 120.472C578.936 120.472 578.157 120.336 577.48 120.064C576.808 119.797 576.242 119.4 575.784 118.872C575.325 118.339 574.976 117.68 574.736 116.896C574.501 116.107 574.384 115.195 574.384 114.16V105.08H571.984V102.36H574.384V98.296H577.624V102.36H583.464V105.08H577.624V114.168C577.624 115.336 577.842 116.2 578.28 116.76C578.722 117.315 579.416 117.592 580.36 117.592C580.728 117.592 581.165 117.549 581.672 117.464C582.184 117.379 582.781 117.245 583.464 117.064V119.864Z" fill="#1A212B"/>
<rect y="159" width="304" height="56" rx="16" fill="white"/>
<path fill-rule="evenodd" clip-rule="evenodd" d="M24 197C29.5228 197 34 192.523 34 187C34 181.477 29.5228 177 24 177C18.4772 177 14 181.477 14 187C14 192.523 18.4772 197 24 197ZM24.4697 183.47C24.7626 183.177 25.2374 183.177 25.5303 183.47L28.5303 186.47C28.8232 186.763 28.8232 187.237 28.5303 187.53L25.5303 190.53C25.2374 190.823 24.7626 190.823 24.4697 190.53C24.1768 190.237 24.1768 189.763 24.4697 189.47L26.1893 187.75H20C19.5858 187.75 19.25 187.414 19.25 187C19.25 186.586 19.5858 186.25 20 186.25H26.1893L24.4697 184.53C24.1768 184.237 24.1768 183.763 24.4697 183.47Z" fill="#1C274C"/>
<path d="M52.48 184.56C52.48 185.936 52.64 187.171 52.96 188.264C53.2853 189.357 53.7547 190.285 54.368 191.048C54.9813 191.805 55.7307 192.387 56.616 192.792C57.5067 193.197 58.52 193.4 59.656 193.4C60.3653 193.4 61.0427 193.325 61.688 193.176C62.3333 193.021 62.9333 192.805 63.488 192.528C64.0427 192.245 64.5467 191.907 65 191.512C65.4533 191.112 65.8427 190.669 66.168 190.184C66.4987 189.693 66.7573 189.163 66.944 188.592C67.1307 188.021 67.2373 187.424 67.264 186.8H59.352V183.76H70.472V196H67.272V189.544C67 190.589 66.6 191.539 66.072 192.392C65.544 193.245 64.912 193.976 64.176 194.584C63.44 195.187 62.6107 195.653 61.688 195.984C60.7707 196.315 59.784 196.48 58.728 196.48C57.7893 196.48 56.9013 196.344 56.064 196.072C55.2267 195.805 54.4507 195.424 53.736 194.928C53.0267 194.427 52.3867 193.821 51.816 193.112C51.2453 192.403 50.76 191.608 50.36 190.728C49.96 189.843 49.6533 188.883 49.44 187.848C49.2267 186.808 49.12 185.712 49.12 184.56C49.12 183.376 49.2373 182.261 49.472 181.216C49.7067 180.165 50.0453 179.2 50.488 178.32C50.9307 177.435 51.4693 176.643 52.104 175.944C52.7387 175.24 53.456 174.645 54.256 174.16C55.056 173.669 55.9307 173.293 56.88 173.032C57.8293 172.771 58.8373 172.64 59.904 172.64C61.216 172.64 62.4427 172.837 63.584 173.232C64.7253 173.621 65.7413 174.181 66.632 174.912C67.528 175.637 68.28 176.517 68.888 177.552C69.496 178.587 69.9227 179.749 70.168 181.04H66.808C66.6107 180.197 66.3067 179.448 65.896 178.792C65.4853 178.136 64.984 177.584 64.392 177.136C63.8 176.688 63.1253 176.347 62.368 176.112C61.616 175.877 60.7973 175.76 59.912 175.76C58.7547 175.76 57.7147 175.963 56.792 176.368C55.8747 176.768 55.096 177.347 54.456 178.104C53.816 178.856 53.3253 179.776 52.984 180.864C52.648 181.952 52.48 183.184 52.48 184.56ZM76.3637 196H73.1238V178.36H76.3637V183.992C76.5718 183.112 76.8678 182.325 77.2518 181.632C77.6411 180.933 78.1211 180.341 78.6918 179.856C79.2624 179.371 79.9211 179 80.6678 178.744C81.4198 178.488 82.2624 178.36 83.1958 178.36H84.0038V181.448H83.2038C81.9131 181.448 80.8304 181.568 79.9558 181.808C79.0811 182.043 78.3771 182.4 77.8438 182.88C77.3158 183.36 76.9371 183.965 76.7078 184.696C76.4784 185.421 76.3637 186.275 76.3637 187.256V196ZM85.445 184.504C85.445 183.491 85.6317 182.576 86.005 181.76C86.3783 180.944 86.9117 180.248 87.605 179.672C88.3037 179.096 89.1463 178.653 90.133 178.344C91.125 178.035 92.2397 177.88 93.477 177.88C94.7837 177.88 95.9543 178.056 96.989 178.408C98.0237 178.755 98.901 179.256 99.621 179.912C100.341 180.568 100.893 181.371 101.277 182.32C101.661 183.264 101.853 184.336 101.853 185.536V196H98.613V191.256C98.3997 192.067 98.0743 192.795 97.637 193.44C97.205 194.085 96.677 194.635 96.053 195.088C95.4343 195.536 94.7277 195.88 93.933 196.12C93.1383 196.36 92.277 196.48 91.349 196.48C90.3837 196.48 89.5063 196.352 88.717 196.096C87.9277 195.84 87.2503 195.48 86.685 195.016C86.125 194.552 85.6903 193.995 85.381 193.344C85.077 192.688 84.925 191.96 84.925 191.16C84.925 190.355 85.0823 189.629 85.397 188.984C85.717 188.339 86.173 187.792 86.765 187.344C87.3623 186.891 88.085 186.544 88.933 186.304C89.7863 186.064 90.7437 185.944 91.805 185.944H98.613V185.536C98.613 184.811 98.4903 184.157 98.245 183.576C98.005 182.989 97.661 182.493 97.213 182.088C96.765 181.677 96.221 181.363 95.581 181.144C94.941 180.925 94.221 180.816 93.421 180.816C92.605 180.816 91.8983 180.904 91.301 181.08C90.709 181.256 90.2183 181.507 89.829 181.832C89.445 182.152 89.157 182.539 88.965 182.992C88.7783 183.445 88.685 183.949 88.685 184.504H85.445ZM91.773 188.664C90.573 188.664 89.6637 188.867 89.045 189.272C88.4317 189.672 88.125 190.267 88.125 191.056C88.125 191.472 88.213 191.843 88.389 192.168C88.5703 192.493 88.8343 192.765 89.181 192.984C89.5277 193.203 89.9543 193.371 90.461 193.488C90.973 193.6 91.5597 193.656 92.221 193.656C93.1597 193.656 94.0183 193.547 94.797 193.328C95.581 193.104 96.2557 192.795 96.821 192.4C97.3863 192 97.8263 191.525 98.141 190.976C98.4557 190.421 98.613 189.813 98.613 189.152V188.664H91.773ZM107.582 183.792C107.812 182.885 108.132 182.069 108.543 181.344C108.953 180.613 109.439 179.992 109.999 179.48C110.559 178.968 111.185 178.573 111.878 178.296C112.577 178.019 113.327 177.88 114.127 177.88C114.852 177.88 115.54 177.984 116.191 178.192C116.841 178.4 117.441 178.699 117.991 179.088C118.545 179.477 119.044 179.949 119.487 180.504C119.935 181.053 120.313 181.672 120.623 182.36C120.932 183.048 121.169 183.797 121.335 184.608C121.505 185.419 121.591 186.275 121.591 187.176C121.591 188.077 121.505 188.933 121.335 189.744C121.169 190.555 120.932 191.307 120.623 192C120.313 192.688 119.935 193.309 119.487 193.864C119.044 194.413 118.545 194.883 117.991 195.272C117.441 195.661 116.841 195.96 116.191 196.168C115.54 196.376 114.852 196.48 114.127 196.48C113.327 196.48 112.577 196.341 111.878 196.064C111.185 195.787 110.559 195.392 109.999 194.88C109.439 194.368 108.953 193.747 108.543 193.016C108.132 192.285 107.812 191.467 107.582 190.56V202.04H104.343V178.36H107.582V183.792ZM107.582 187.176C107.582 188.184 107.705 189.088 107.951 189.888C108.201 190.683 108.561 191.357 109.031 191.912C109.5 192.467 110.071 192.893 110.743 193.192C111.415 193.485 112.175 193.632 113.023 193.632C113.887 193.632 114.649 193.493 115.311 193.216C115.977 192.933 116.535 192.52 116.983 191.976C117.431 191.427 117.769 190.752 117.999 189.952C118.233 189.147 118.351 188.221 118.351 187.176C118.351 186.131 118.233 185.208 117.999 184.408C117.769 183.603 117.431 182.928 116.983 182.384C116.535 181.84 115.977 181.429 115.311 181.152C114.649 180.869 113.887 180.728 113.023 180.728C112.175 180.728 111.415 180.875 110.743 181.168C110.071 181.461 109.5 181.885 109.031 182.44C108.561 182.995 108.201 183.672 107.951 184.472C107.705 185.267 107.582 186.168 107.582 187.176ZM126.989 196H123.749V172.32H126.989V183.456C127.202 182.587 127.509 181.808 127.909 181.12C128.309 180.432 128.789 179.848 129.349 179.368C129.909 178.888 130.541 178.52 131.245 178.264C131.954 178.008 132.719 177.88 133.541 177.88C134.543 177.88 135.442 178.069 136.237 178.448C137.031 178.827 137.703 179.373 138.253 180.088C138.807 180.797 139.229 181.664 139.517 182.688C139.81 183.707 139.957 184.856 139.957 186.136V196H136.717V186.136C136.717 184.365 136.341 183.035 135.589 182.144C134.837 181.253 133.703 180.808 132.189 180.808C131.373 180.808 130.642 180.936 129.997 181.192C129.357 181.443 128.813 181.811 128.365 182.296C127.922 182.776 127.581 183.368 127.341 184.072C127.106 184.771 126.989 185.565 126.989 186.456V196ZM145.756 176.32H142.356V172.32H145.756V176.32ZM145.676 196H142.436V178.36H145.676V196ZM151.089 187.176C151.089 188.163 151.211 189.051 151.457 189.84C151.707 190.624 152.065 191.293 152.529 191.848C152.998 192.397 153.566 192.819 154.233 193.112C154.899 193.405 155.649 193.552 156.481 193.552C157.211 193.552 157.857 193.443 158.417 193.224C158.977 193.005 159.459 192.707 159.865 192.328C160.27 191.944 160.598 191.499 160.849 190.992C161.099 190.48 161.278 189.933 161.385 189.352H164.625C164.539 190.019 164.387 190.659 164.169 191.272C163.95 191.885 163.67 192.456 163.329 192.984C162.987 193.512 162.585 193.992 162.121 194.424C161.662 194.851 161.145 195.219 160.569 195.528C159.993 195.832 159.363 196.067 158.681 196.232C157.998 196.397 157.262 196.48 156.473 196.48C155.614 196.48 154.803 196.379 154.041 196.176C153.278 195.979 152.577 195.691 151.937 195.312C151.302 194.928 150.731 194.464 150.225 193.92C149.718 193.376 149.289 192.76 148.937 192.072C148.585 191.379 148.315 190.621 148.129 189.8C147.942 188.979 147.849 188.104 147.849 187.176C147.849 186.248 147.942 185.373 148.129 184.552C148.315 183.731 148.585 182.976 148.937 182.288C149.289 181.6 149.718 180.984 150.225 180.44C150.731 179.891 151.302 179.427 151.937 179.048C152.577 178.669 153.278 178.381 154.041 178.184C154.803 177.981 155.614 177.88 156.473 177.88C157.262 177.88 157.998 177.963 158.681 178.128C159.369 178.293 160.001 178.531 160.577 178.84C161.153 179.144 161.67 179.512 162.129 179.944C162.593 180.371 162.993 180.848 163.329 181.376C163.67 181.904 163.95 182.475 164.169 183.088C164.387 183.701 164.539 184.341 164.625 185.008H161.385C161.278 184.427 161.099 183.883 160.849 183.376C160.603 182.864 160.278 182.419 159.873 182.04C159.467 181.656 158.982 181.355 158.417 181.136C157.857 180.917 157.211 180.808 156.481 180.808C155.649 180.808 154.899 180.955 154.233 181.248C153.566 181.541 152.998 181.963 152.529 182.512C152.065 183.061 151.707 183.731 151.457 184.52C151.211 185.304 151.089 186.189 151.089 187.176ZM173.948 177.88C175.148 177.88 176.215 178.016 177.148 178.288C178.087 178.56 178.876 178.949 179.516 179.456C180.161 179.957 180.652 180.568 180.988 181.288C181.324 182.003 181.492 182.805 181.492 183.696H178.324C178.324 183.243 178.228 182.832 178.036 182.464C177.849 182.091 177.569 181.773 177.196 181.512C176.828 181.245 176.372 181.04 175.828 180.896C175.284 180.752 174.657 180.68 173.948 180.68C173.308 180.68 172.724 180.739 172.196 180.856C171.673 180.973 171.223 181.141 170.844 181.36C170.465 181.573 170.172 181.832 169.964 182.136C169.756 182.435 169.652 182.768 169.652 183.136C169.652 183.413 169.711 183.659 169.828 183.872C169.945 184.08 170.105 184.261 170.308 184.416C170.511 184.571 170.748 184.704 171.02 184.816C171.292 184.923 171.583 185.016 171.892 185.096C172.207 185.176 172.532 185.245 172.868 185.304C173.204 185.357 173.535 185.411 173.86 185.464L175.044 185.648C175.535 185.723 176.049 185.811 176.588 185.912C177.132 186.008 177.665 186.139 178.188 186.304C178.716 186.464 179.217 186.669 179.692 186.92C180.172 187.165 180.593 187.475 180.956 187.848C181.319 188.221 181.607 188.669 181.82 189.192C182.033 189.709 182.14 190.325 182.14 191.04C182.14 191.909 181.969 192.683 181.628 193.36C181.287 194.032 180.783 194.6 180.116 195.064C179.449 195.528 178.625 195.88 177.644 196.12C176.663 196.36 175.529 196.48 174.244 196.48C172.905 196.48 171.732 196.349 170.724 196.088C169.716 195.827 168.876 195.443 168.204 194.936C167.532 194.429 167.025 193.808 166.684 193.072C166.348 192.331 166.18 191.48 166.18 190.52H169.34C169.34 191.533 169.74 192.315 170.54 192.864C171.34 193.408 172.572 193.68 174.236 193.68C174.988 193.68 175.657 193.624 176.244 193.512C176.831 193.4 177.327 193.235 177.732 193.016C178.137 192.797 178.447 192.528 178.66 192.208C178.873 191.888 178.98 191.523 178.98 191.112C178.98 190.792 178.919 190.512 178.796 190.272C178.673 190.027 178.503 189.816 178.284 189.64C178.065 189.459 177.807 189.304 177.508 189.176C177.215 189.043 176.895 188.928 176.548 188.832C176.201 188.736 175.839 188.653 175.46 188.584C175.087 188.509 174.708 188.44 174.324 188.376L173.148 188.176C172.7 188.101 172.225 188.016 171.724 187.92C171.223 187.819 170.724 187.693 170.228 187.544C169.737 187.389 169.265 187.197 168.812 186.968C168.364 186.733 167.967 186.445 167.62 186.104C167.279 185.763 167.004 185.355 166.796 184.88C166.593 184.405 166.492 183.848 166.492 183.208C166.492 182.397 166.663 181.664 167.004 181.008C167.351 180.352 167.844 179.792 168.484 179.328C169.129 178.864 169.911 178.507 170.828 178.256C171.751 178.005 172.791 177.88 173.948 177.88ZM191.423 173.12H198.951C200.129 173.12 201.236 173.243 202.271 173.488C203.311 173.733 204.265 174.091 205.135 174.56C206.009 175.024 206.791 175.592 207.479 176.264C208.167 176.931 208.748 177.688 209.223 178.536C209.703 179.384 210.068 180.315 210.319 181.328C210.575 182.336 210.703 183.413 210.703 184.56C210.703 185.707 210.575 186.787 210.319 187.8C210.068 188.808 209.703 189.736 209.223 190.584C208.748 191.427 208.167 192.184 207.479 192.856C206.791 193.528 206.009 194.096 205.135 194.56C204.265 195.024 203.311 195.381 202.271 195.632C201.236 195.877 200.129 196 198.951 196H191.423V173.12ZM198.959 192.88C200.265 192.88 201.436 192.691 202.471 192.312C203.511 191.928 204.391 191.379 205.111 190.664C205.831 189.949 206.383 189.077 206.767 188.048C207.151 187.019 207.343 185.856 207.343 184.56C207.343 183.264 207.151 182.101 206.767 181.072C206.383 180.043 205.831 179.171 205.111 178.456C204.391 177.741 203.511 177.195 202.471 176.816C201.436 176.432 200.265 176.24 198.959 176.24H194.703V192.88H198.959ZM229.367 190.152C229.137 191.139 228.78 192.024 228.295 192.808C227.809 193.592 227.217 194.256 226.519 194.8C225.825 195.344 225.036 195.76 224.151 196.048C223.265 196.336 222.305 196.48 221.271 196.48C220.407 196.48 219.591 196.379 218.823 196.176C218.06 195.973 217.356 195.683 216.711 195.304C216.071 194.92 215.495 194.456 214.983 193.912C214.476 193.363 214.044 192.744 213.687 192.056C213.335 191.363 213.065 190.605 212.879 189.784C212.692 188.957 212.599 188.08 212.599 187.152C212.599 186.224 212.692 185.352 212.879 184.536C213.065 183.72 213.332 182.968 213.679 182.28C214.031 181.592 214.457 180.976 214.959 180.432C215.46 179.888 216.028 179.427 216.663 179.048C217.297 178.669 217.993 178.381 218.751 178.184C219.508 177.981 220.313 177.88 221.167 177.88C222.431 177.88 223.572 178.099 224.591 178.536C225.609 178.968 226.479 179.584 227.199 180.384C227.919 181.184 228.473 182.152 228.863 183.288C229.252 184.424 229.447 185.696 229.447 187.104C229.447 187.307 229.441 187.507 229.431 187.704C229.425 187.901 229.412 188.12 229.391 188.36H215.903C215.999 189.165 216.191 189.891 216.479 190.536C216.772 191.176 217.151 191.72 217.615 192.168C218.084 192.616 218.633 192.96 219.263 193.2C219.892 193.435 220.588 193.552 221.351 193.552C222.524 193.552 223.505 193.269 224.295 192.704C225.084 192.133 225.695 191.283 226.127 190.152H229.367ZM226.095 185.56C225.988 184.792 225.801 184.115 225.535 183.528C225.268 182.936 224.927 182.44 224.511 182.04C224.095 181.635 223.607 181.328 223.047 181.12C222.492 180.912 221.871 180.808 221.183 180.808C220.479 180.808 219.833 180.917 219.247 181.136C218.66 181.349 218.143 181.661 217.695 182.072C217.252 182.477 216.884 182.976 216.591 183.568C216.297 184.155 216.089 184.819 215.967 185.56H226.095ZM238.76 177.88C239.961 177.88 241.027 178.016 241.961 178.288C242.899 178.56 243.689 178.949 244.329 179.456C244.974 179.957 245.465 180.568 245.801 181.288C246.137 182.003 246.305 182.805 246.305 183.696H243.137C243.137 183.243 243.041 182.832 242.849 182.464C242.662 182.091 242.382 181.773 242.009 181.512C241.641 181.245 241.185 181.04 240.641 180.896C240.097 180.752 239.47 180.68 238.76 180.68C238.121 180.68 237.537 180.739 237.009 180.856C236.486 180.973 236.035 181.141 235.657 181.36C235.278 181.573 234.985 181.832 234.777 182.136C234.569 182.435 234.465 182.768 234.465 183.136C234.465 183.413 234.523 183.659 234.641 183.872C234.758 184.08 234.918 184.261 235.121 184.416C235.323 184.571 235.561 184.704 235.833 184.816C236.105 184.923 236.395 185.016 236.705 185.096C237.019 185.176 237.345 185.245 237.681 185.304C238.017 185.357 238.347 185.411 238.673 185.464L239.857 185.648C240.347 185.723 240.862 185.811 241.401 185.912C241.945 186.008 242.478 186.139 243.001 186.304C243.529 186.464 244.03 186.669 244.505 186.92C244.985 187.165 245.406 187.475 245.769 187.848C246.131 188.221 246.419 188.669 246.633 189.192C246.846 189.709 246.953 190.325 246.953 191.04C246.953 191.909 246.782 192.683 246.441 193.36C246.099 194.032 245.595 194.6 244.929 195.064C244.262 195.528 243.438 195.88 242.457 196.12C241.475 196.36 240.342 196.48 239.057 196.48C237.718 196.48 236.545 196.349 235.537 196.088C234.529 195.827 233.689 195.443 233.017 194.936C232.345 194.429 231.838 193.808 231.497 193.072C231.161 192.331 230.993 191.48 230.993 190.52H234.153C234.153 191.533 234.553 192.315 235.353 192.864C236.153 193.408 237.385 193.68 239.049 193.68C239.801 193.68 240.47 193.624 241.057 193.512C241.643 193.4 242.139 193.235 242.545 193.016C242.95 192.797 243.259 192.528 243.473 192.208C243.686 191.888 243.793 191.523 243.793 191.112C243.793 190.792 243.731 190.512 243.609 190.272C243.486 190.027 243.315 189.816 243.097 189.64C242.878 189.459 242.619 189.304 242.321 189.176C242.027 189.043 241.707 188.928 241.361 188.832C241.014 188.736 240.651 188.653 240.273 188.584C239.899 188.509 239.521 188.44 239.137 188.376L237.961 188.176C237.513 188.101 237.038 188.016 236.537 187.92C236.035 187.819 235.537 187.693 235.041 187.544C234.55 187.389 234.078 187.197 233.625 186.968C233.177 186.733 232.779 186.445 232.433 186.104C232.091 185.763 231.817 185.355 231.609 184.88C231.406 184.405 231.305 183.848 231.305 183.208C231.305 182.397 231.475 181.664 231.817 181.008C232.163 180.352 232.657 179.792 233.297 179.328C233.942 178.864 234.723 178.507 235.641 178.256C236.563 178.005 237.603 177.88 238.76 177.88ZM252.288 176.32H248.888V172.32H252.288V176.32ZM252.207 196H248.968V178.36H252.207V196ZM271.628 178.36V192.8C271.628 193.771 271.535 194.685 271.348 195.544C271.161 196.403 270.892 197.192 270.54 197.912C270.193 198.632 269.767 199.277 269.26 199.848C268.753 200.424 268.18 200.912 267.54 201.312C266.905 201.712 266.207 202.016 265.444 202.224C264.687 202.437 263.879 202.544 263.02 202.544C262.284 202.544 261.58 202.467 260.908 202.312C260.236 202.163 259.609 201.947 259.028 201.664C258.452 201.381 257.927 201.04 257.452 200.64C256.983 200.245 256.58 199.803 256.244 199.312C255.908 198.821 255.649 198.288 255.468 197.712C255.287 197.141 255.196 196.544 255.196 195.92H258.436C258.436 196.277 258.489 196.619 258.596 196.944C258.708 197.269 258.863 197.573 259.06 197.856C259.263 198.144 259.503 198.403 259.78 198.632C260.063 198.867 260.375 199.064 260.716 199.224C261.057 199.389 261.423 199.517 261.812 199.608C262.207 199.699 262.617 199.744 263.044 199.744C263.855 199.744 264.588 199.579 265.244 199.248C265.905 198.917 266.468 198.448 266.932 197.84C267.396 197.232 267.753 196.501 268.004 195.648C268.26 194.795 268.388 193.845 268.388 192.8V190.016C268.159 190.88 267.836 191.661 267.42 192.36C267.009 193.059 266.519 193.656 265.948 194.152C265.383 194.643 264.745 195.021 264.036 195.288C263.332 195.549 262.572 195.68 261.756 195.68C261.047 195.68 260.372 195.581 259.732 195.384C259.092 195.181 258.497 194.896 257.948 194.528C257.404 194.155 256.911 193.704 256.468 193.176C256.031 192.643 255.657 192.048 255.348 191.392C255.039 190.731 254.799 190.013 254.628 189.24C254.463 188.461 254.38 187.64 254.38 186.776C254.38 185.912 254.463 185.093 254.628 184.32C254.799 183.541 255.039 182.824 255.348 182.168C255.657 181.507 256.031 180.912 256.468 180.384C256.911 179.856 257.404 179.408 257.948 179.04C258.497 178.667 259.092 178.381 259.732 178.184C260.372 177.981 261.047 177.88 261.756 177.88C262.572 177.88 263.332 178.013 264.036 178.28C264.745 178.541 265.383 178.92 265.948 179.416C266.519 179.907 267.009 180.501 267.42 181.2C267.836 181.899 268.159 182.68 268.388 183.544V178.36H271.628ZM268.388 186.776C268.388 185.832 268.263 184.987 268.012 184.24C267.761 183.488 267.399 182.853 266.924 182.336C266.455 181.813 265.876 181.416 265.188 181.144C264.505 180.867 263.729 180.728 262.86 180.728C262.017 180.728 261.271 180.859 260.62 181.12C259.969 181.381 259.42 181.768 258.972 182.28C258.529 182.792 258.193 183.424 257.964 184.176C257.735 184.928 257.62 185.795 257.62 186.776C257.62 187.757 257.735 188.624 257.964 189.376C258.199 190.128 258.537 190.76 258.98 191.272C259.423 191.784 259.969 192.173 260.62 192.44C261.276 192.701 262.023 192.832 262.86 192.832C263.729 192.832 264.505 192.693 265.188 192.416C265.876 192.139 266.455 191.741 266.924 191.224C267.399 190.701 267.761 190.067 268.012 189.32C268.263 188.568 268.388 187.72 268.388 186.776ZM277.426 196H274.186V178.36H277.426V183.456C277.64 182.587 277.946 181.808 278.346 181.12C278.746 180.432 279.226 179.848 279.786 179.368C280.346 178.888 280.978 178.52 281.682 178.264C282.392 178.008 283.157 177.88 283.978 177.88C284.981 177.88 285.88 178.069 286.674 178.448C287.469 178.827 288.141 179.373 288.69 180.088C289.245 180.797 289.666 181.664 289.954 182.688C290.248 183.707 290.394 184.856 290.394 186.136V196H287.154V186.136C287.154 184.365 286.778 183.035 286.026 182.144C285.274 181.253 284.141 180.808 282.626 180.808C281.81 180.808 281.08 180.936 280.434 181.192C279.794 181.443 279.25 181.811 278.802 182.296C278.36 182.776 278.018 183.368 277.778 184.072C277.544 184.771 277.426 185.565 277.426 186.456V196Z" fill="#1A212B"/>
<rect x="318" y="159" width="195" height="56" rx="16" fill="white"/>
<path fill-rule="evenodd" clip-rule="evenodd" d="M342 197C347.523 197 352 192.523 352 187C352 181.477 347.523 177 342 177C336.477 177 332 181.477 332 187C332 192.523 336.477 197 342 197ZM342.47 183.47C342.763 183.177 343.237 183.177 343.53 183.47L346.53 186.47C346.823 186.763 346.823 187.237 346.53 187.53L343.53 190.53C343.237 190.823 342.763 190.823 342.47 190.53C342.177 190.237 342.177 189.763 342.47 189.47L344.189 187.75H338C337.586 187.75 337.25 187.414 337.25 187C337.25 186.586 337.586 186.25 338 186.25H344.189L342.47 184.53C342.177 184.237 342.177 183.763 342.47 183.47Z" fill="#1C274C"/>
<path d="M378.488 173.12C379.192 173.12 379.861 173.189 380.496 173.328C381.136 173.461 381.728 173.653 382.272 173.904C382.816 174.149 383.307 174.451 383.744 174.808C384.187 175.16 384.56 175.557 384.864 176C385.173 176.437 385.411 176.915 385.576 177.432C385.747 177.944 385.832 178.485 385.832 179.056C385.832 179.733 385.717 180.368 385.488 180.96C385.259 181.547 384.936 182.067 384.52 182.52C384.109 182.968 383.621 183.339 383.056 183.632C382.491 183.925 381.872 184.112 381.2 184.192C382.021 184.267 382.773 184.461 383.456 184.776C384.144 185.085 384.736 185.488 385.232 185.984C385.728 186.48 386.112 187.056 386.384 187.712C386.661 188.368 386.8 189.08 386.8 189.848C386.8 190.451 386.715 191.021 386.544 191.56C386.373 192.099 386.125 192.597 385.8 193.056C385.48 193.509 385.091 193.917 384.632 194.28C384.173 194.643 383.656 194.952 383.08 195.208C382.509 195.464 381.885 195.661 381.208 195.8C380.531 195.933 379.813 196 379.056 196H367.36V173.12H378.488ZM378.328 183C378.952 183 379.52 182.915 380.032 182.744C380.544 182.573 380.981 182.336 381.344 182.032C381.712 181.723 381.995 181.352 382.192 180.92C382.395 180.488 382.496 180.011 382.496 179.488C382.496 178.981 382.4 178.528 382.208 178.128C382.016 177.728 381.739 177.389 381.376 177.112C381.019 176.829 380.581 176.613 380.064 176.464C379.547 176.315 378.96 176.24 378.304 176.24H370.72V183H378.328ZM378.576 192.88C381.835 192.88 383.464 191.723 383.464 189.408C383.464 188.245 383.061 187.381 382.256 186.816C381.451 186.245 380.227 185.96 378.584 185.96H370.72V192.88H378.576ZM391.989 196H388.749V178.36H391.989V183.992C392.197 183.112 392.493 182.325 392.877 181.632C393.266 180.933 393.746 180.341 394.317 179.856C394.887 179.371 395.546 179 396.293 178.744C397.045 178.488 397.887 178.36 398.821 178.36H399.629V181.448H398.829C397.538 181.448 396.455 181.568 395.581 181.808C394.706 182.043 394.002 182.4 393.469 182.88C392.941 183.36 392.562 183.965 392.333 184.696C392.103 185.421 391.989 186.275 391.989 187.256V196ZM401.07 184.504C401.07 183.491 401.257 182.576 401.63 181.76C402.003 180.944 402.537 180.248 403.23 179.672C403.929 179.096 404.771 178.653 405.758 178.344C406.75 178.035 407.865 177.88 409.102 177.88C410.409 177.88 411.579 178.056 412.614 178.408C413.649 178.755 414.526 179.256 415.246 179.912C415.966 180.568 416.518 181.371 416.902 182.32C417.286 183.264 417.478 184.336 417.478 185.536V196H414.238V191.256C414.025 192.067 413.699 192.795 413.262 193.44C412.83 194.085 412.302 194.635 411.678 195.088C411.059 195.536 410.353 195.88 409.558 196.12C408.763 196.36 407.902 196.48 406.974 196.48C406.009 196.48 405.131 196.352 404.342 196.096C403.553 195.84 402.875 195.48 402.31 195.016C401.75 194.552 401.315 193.995 401.006 193.344C400.702 192.688 400.55 191.96 400.55 191.16C400.55 190.355 400.707 189.629 401.022 188.984C401.342 188.339 401.798 187.792 402.39 187.344C402.987 186.891 403.71 186.544 404.558 186.304C405.411 186.064 406.369 185.944 407.43 185.944H414.238V185.536C414.238 184.811 414.115 184.157 413.87 183.576C413.63 182.989 413.286 182.493 412.838 182.088C412.39 181.677 411.846 181.363 411.206 181.144C410.566 180.925 409.846 180.816 409.046 180.816C408.23 180.816 407.523 180.904 406.926 181.08C406.334 181.256 405.843 181.507 405.454 181.832C405.07 182.152 404.782 182.539 404.59 182.992C404.403 183.445 404.31 183.949 404.31 184.504H401.07ZM407.398 188.664C406.198 188.664 405.289 188.867 404.67 189.272C404.057 189.672 403.75 190.267 403.75 191.056C403.75 191.472 403.838 191.843 404.014 192.168C404.195 192.493 404.459 192.765 404.806 192.984C405.153 193.203 405.579 193.371 406.086 193.488C406.598 193.6 407.185 193.656 407.846 193.656C408.785 193.656 409.643 193.547 410.422 193.328C411.206 193.104 411.881 192.795 412.446 192.4C413.011 192 413.451 191.525 413.766 190.976C414.081 190.421 414.238 189.813 414.238 189.152V188.664H407.398ZM423.207 196H419.968V178.36H423.207V183.456C423.421 182.587 423.728 181.808 424.128 181.12C424.528 180.432 425.008 179.848 425.568 179.368C426.128 178.888 426.76 178.52 427.464 178.264C428.173 178.008 428.938 177.88 429.76 177.88C430.762 177.88 431.661 178.069 432.456 178.448C433.25 178.827 433.922 179.373 434.472 180.088C435.026 180.797 435.448 181.664 435.736 182.688C436.029 183.707 436.176 184.856 436.176 186.136V196H432.936V186.136C432.936 184.365 432.56 183.035 431.808 182.144C431.056 181.253 429.922 180.808 428.408 180.808C427.592 180.808 426.861 180.936 426.216 181.192C425.576 181.443 425.032 181.811 424.584 182.296C424.141 182.776 423.8 183.368 423.56 184.072C423.325 184.771 423.207 185.565 423.207 186.456V196ZM455.503 172.32V196H452.263V190.56C452.034 191.467 451.714 192.285 451.303 193.016C450.892 193.747 450.407 194.368 449.847 194.88C449.287 195.392 448.658 195.787 447.959 196.064C447.266 196.341 446.519 196.48 445.719 196.48C444.994 196.48 444.306 196.376 443.655 196.168C443.004 195.96 442.402 195.661 441.847 195.272C441.298 194.883 440.799 194.413 440.351 193.864C439.908 193.309 439.532 192.688 439.223 192C438.914 191.307 438.674 190.555 438.503 189.744C438.338 188.933 438.255 188.077 438.255 187.176C438.255 186.275 438.338 185.419 438.503 184.608C438.674 183.797 438.914 183.048 439.223 182.36C439.532 181.672 439.908 181.053 440.351 180.504C440.799 179.949 441.298 179.477 441.847 179.088C442.402 178.699 443.004 178.4 443.655 178.192C444.306 177.984 444.994 177.88 445.719 177.88C446.519 177.88 447.266 178.019 447.959 178.296C448.658 178.573 449.287 178.968 449.847 179.48C450.407 179.992 450.892 180.613 451.303 181.344C451.714 182.069 452.034 182.885 452.263 183.792V172.32H455.503ZM452.263 187.176C452.263 186.168 452.138 185.267 451.887 184.472C451.642 183.672 451.284 182.995 450.815 182.44C450.346 181.885 449.775 181.461 449.103 181.168C448.431 180.875 447.671 180.728 446.823 180.728C445.959 180.728 445.194 180.869 444.527 181.152C443.866 181.429 443.311 181.84 442.863 182.384C442.415 182.928 442.074 183.603 441.839 184.408C441.61 185.208 441.495 186.131 441.495 187.176C441.495 188.221 441.61 189.147 441.839 189.952C442.074 190.752 442.415 191.427 442.863 191.976C443.311 192.52 443.866 192.933 444.527 193.216C445.194 193.493 445.959 193.632 446.823 193.632C447.671 193.632 448.431 193.485 449.103 193.192C449.775 192.893 450.346 192.467 450.815 191.912C451.284 191.357 451.642 190.683 451.887 189.888C452.138 189.088 452.263 188.184 452.263 187.176ZM461.381 176.32H457.981V172.32H461.381V176.32ZM461.301 196H458.061V178.36H461.301V196ZM467.114 196H463.874V178.36H467.114V183.456C467.327 182.587 467.634 181.808 468.034 181.12C468.434 180.432 468.914 179.848 469.474 179.368C470.034 178.888 470.666 178.52 471.37 178.264C472.079 178.008 472.844 177.88 473.666 177.88C474.668 177.88 475.567 178.069 476.362 178.448C477.156 178.827 477.828 179.373 478.378 180.088C478.932 180.797 479.354 181.664 479.642 182.688C479.935 183.707 480.082 184.856 480.082 186.136V196H476.842V186.136C476.842 184.365 476.466 183.035 475.714 182.144C474.962 181.253 473.828 180.808 472.314 180.808C471.498 180.808 470.767 180.936 470.122 181.192C469.482 181.443 468.938 181.811 468.49 182.296C468.047 182.776 467.706 183.368 467.466 184.072C467.231 184.771 467.114 185.565 467.114 186.456V196ZM499.409 178.36V192.8C499.409 193.771 499.316 194.685 499.129 195.544C498.943 196.403 498.673 197.192 498.321 197.912C497.975 198.632 497.548 199.277 497.041 199.848C496.535 200.424 495.961 200.912 495.321 201.312C494.687 201.712 493.988 202.016 493.225 202.224C492.468 202.437 491.66 202.544 490.801 202.544C490.065 202.544 489.361 202.467 488.689 202.312C488.017 202.163 487.391 201.947 486.809 201.664C486.233 201.381 485.708 201.04 485.233 200.64C484.764 200.245 484.361 199.803 484.025 199.312C483.689 198.821 483.431 198.288 483.249 197.712C483.068 197.141 482.977 196.544 482.977 195.92H486.217C486.217 196.277 486.271 196.619 486.377 196.944C486.489 197.269 486.644 197.573 486.841 197.856C487.044 198.144 487.284 198.403 487.561 198.632C487.844 198.867 488.156 199.064 488.497 199.224C488.839 199.389 489.204 199.517 489.593 199.608C489.988 199.699 490.399 199.744 490.825 199.744C491.636 199.744 492.369 199.579 493.025 199.248C493.687 198.917 494.249 198.448 494.713 197.84C495.177 197.232 495.535 196.501 495.785 195.648C496.041 194.795 496.169 193.845 496.169 192.8V190.016C495.94 190.88 495.617 191.661 495.201 192.36C494.791 193.059 494.3 193.656 493.729 194.152C493.164 194.643 492.527 195.021 491.817 195.288C491.113 195.549 490.353 195.68 489.537 195.68C488.828 195.68 488.153 195.581 487.513 195.384C486.873 195.181 486.279 194.896 485.729 194.528C485.185 194.155 484.692 193.704 484.249 193.176C483.812 192.643 483.439 192.048 483.129 191.392C482.82 190.731 482.58 190.013 482.409 189.24C482.244 188.461 482.161 187.64 482.161 186.776C482.161 185.912 482.244 185.093 482.409 184.32C482.58 183.541 482.82 182.824 483.129 182.168C483.439 181.507 483.812 180.912 484.249 180.384C484.692 179.856 485.185 179.408 485.729 179.04C486.279 178.667 486.873 178.381 487.513 178.184C488.153 177.981 488.828 177.88 489.537 177.88C490.353 177.88 491.113 178.013 491.817 178.28C492.527 178.541 493.164 178.92 493.729 179.416C494.3 179.907 494.791 180.501 495.201 181.2C495.617 181.899 495.94 182.68 496.169 183.544V178.36H499.409ZM496.169 186.776C496.169 185.832 496.044 184.987 495.793 184.24C495.543 183.488 495.18 182.853 494.705 182.336C494.236 181.813 493.657 181.416 492.969 181.144C492.287 180.867 491.511 180.728 490.641 180.728C489.799 180.728 489.052 180.859 488.401 181.12C487.751 181.381 487.201 181.768 486.753 182.28C486.311 182.792 485.975 183.424 485.745 184.176C485.516 184.928 485.401 185.795 485.401 186.776C485.401 187.757 485.516 188.624 485.745 189.376C485.98 190.128 486.319 190.76 486.761 191.272C487.204 191.784 487.751 192.173 488.401 192.44C489.057 192.701 489.804 192.832 490.641 192.832C491.511 192.832 492.287 192.693 492.969 192.416C493.657 192.139 494.236 191.741 494.705 191.224C495.18 190.701 495.543 190.067 495.793 189.32C496.044 188.568 496.169 187.72 496.169 186.776Z" fill="#1A212B"/>
<rect x="153" width="360" height="222" fill="url(#paint0_linear_545_263)"/>
<defs>
<linearGradient id="paint0_linear_545_263" x1="153" y1="110.464" x2="543.408" y2="110.464" gradientUnits="userSpaceOnUse">
<stop stop-color="#8D33FF" stop-opacity="0"/>
<stop offset="0.902778" stop-color="#8D33FF"/>
</linearGradient>
</defs>
</svg>
